<svg width="734" height="73" viewBox="0 0 734 73" fill="none" xmlns="http://www.w3.org/2000/svg">
<path d="M731.814 60.9446C731.74 12.5761 720.149 12.5937 705.979 10.1348C694.642 8.16765 320.9 9.8929 135.446 11.0014C134.398 27.9527 127.925 61.8619 110.409 61.8885C92.8941 61.9151 21.1718 61.8624 4.00001 61.8885" stroke="#79FA51" stroke-width="3" stroke-linecap="round" stroke-linejoin="round"/>
<path d="M0.383634 30.4885C0.376679 31.8805 0.526022 33.2133 0.831663 34.4868C1.13742 35.7363 1.62384 36.8548 2.29092 37.8421C2.98211 38.8056 3.87826 39.5781 4.97937 40.1596C6.08048 40.7411 7.42303 41.0358 9.00701 41.0437L29.2388 41.1448C30.8227 41.1527 32.1682 40.8714 33.275 40.301C34.3819 39.7305 35.2737 38.9669 35.9505 38.0103C36.6514 37.0298 37.149 35.9163 37.4432 34.6697C37.7616 33.3993 37.9242 32.0681 37.9312 30.6761L29.5433 30.6342C29.4437 31.3537 29.2366 31.9767 28.9219 32.5031C28.6313 33.0297 28.1372 33.4472 27.4396 33.7557C26.8141 34.0646 26.2253 34.2177 25.6733 34.2149L12.6415 34.1498C12.3775 34.1485 12.0897 34.111 11.778 34.0375C11.4665 33.9399 11.1551 33.8184 10.8439 33.6728C10.5326 33.5273 10.2455 33.3458 9.98256 33.1285C9.71965 32.9112 9.51685 32.6702 9.37417 32.4055C9.08881 31.876 8.88793 31.251 8.77153 30.5304L0.383634 30.4885ZM0.412771 24.6566L8.80067 24.6985C8.92438 23.9551 9.1315 23.3321 9.42201 22.8296C9.73665 22.3031 10.2307 21.8856 10.9043 21.577C11.5298 21.2681 12.1306 21.1151 12.7066 21.118L25.7384 21.1831C26.2904 21.1858 26.8776 21.3448 27.5001 21.6599C28.2184 21.9995 28.7083 22.4219 28.9698 22.9272C29.2792 23.4328 29.4801 24.0578 29.5724 24.8023L37.9603 24.8442C37.9673 23.4522 37.8179 22.1194 37.5123 20.8459C37.2306 19.5725 36.7442 18.454 36.053 17.4906C35.3858 16.5272 34.5017 15.7548 33.4006 15.1733C32.2995 14.5918 30.9569 14.2971 29.3729 14.2891L9.14118 14.1881C7.5572 14.1802 6.21178 14.4614 5.10492 15.0319C3.99805 15.6024 3.09423 16.3659 2.39344 17.3224C1.71665 18.279 1.21908 19.3926 0.90073 20.663C0.582378 21.9334 0.419726 23.2646 0.412771 24.6566ZM77.5007 29.7218C77.4753 30.0097 77.3534 30.3931 77.135 30.872C76.9166 31.3509 76.5782 31.8292 76.1198 32.3069C75.6614 32.7846 74.951 33.2611 73.9886 33.7363C73.0502 34.2116 71.897 34.4459 70.5291 34.439L52.3853 34.3484L52.3507 41.2603L43.9269 41.2182L43.9956 27.4664L67.1433 27.582C67.9833 27.5862 68.5724 27.3612 68.9107 26.9068C69.2731 26.4286 69.4565 25.7336 69.4611 24.8216L69.4649 24.0656C69.4688 23.2736 69.2924 22.5647 68.9355 21.9389C68.6026 21.3132 68.0522 20.9985 67.2842 20.9946L44.0285 20.8785L44.061 14.3625L70.6287 14.4953C71.9967 14.5021 73.1475 14.7359 74.0812 15.1965C75.0389 15.6573 75.7446 16.1288 76.1982 16.6111C76.6518 17.0934 76.9853 17.5871 77.1988 18.0921C77.4124 18.5732 77.5305 18.9578 77.553 19.2459L77.5007 29.7218ZM95.0136 24.5892L103.329 24.6308L103.245 41.5146L94.9292 41.473L95.0136 24.5892ZM83.4355 14.5593L115.007 14.717L114.975 21.2329L83.403 21.0752L83.4355 14.5593Z" fill="#79FA51"/>
</svg>
