<svg width="327" height="64" viewBox="0 0 327 64" fill="none" xmlns="http://www.w3.org/2000/svg">
<path d="M19.4937 51.8652C-1.61969 51.8652 3.20624 42.8905 1.99976 4H324.733C324.934 12.3515 325.216 31.5225 324.733 41.3947C324.251 51.2669 310.457 52.4884 303.62 51.8652H19.4937Z" stroke="#BE00FF" stroke-width="3"/>
<path d="M98.2878 14.144H106.568V41H98.2878V14.144ZM112.63 24.44H121.27V41.036H112.63V24.44ZM112.702 20.912V14.144H140.674C141.73 14.144 142.786 14.312 143.842 14.648C144.898 14.984 145.846 15.476 146.686 16.124C147.526 16.748 148.21 17.528 148.738 18.464C149.266 19.4 149.53 20.456 149.53 21.632V40.964H140.962V24.656C140.842 24.128 140.698 23.624 140.53 23.144C140.386 22.64 140.098 22.184 139.666 21.776C139.258 21.368 138.91 21.128 138.622 21.056C138.334 20.984 138.022 20.936 137.686 20.912H112.702ZM155.382 24.548H185.262V30.38H155.382V24.548ZM155.382 20.516V14.144H185.262V20.516H155.382ZM155.382 34.628H163.95V41H155.382V34.628ZM189.41 30.488C189.41 31.88 189.566 33.212 189.878 34.484C190.19 35.732 190.682 36.848 191.354 37.832C192.05 38.792 192.95 39.56 194.054 40.136C195.158 40.712 196.502 41 198.086 41H218.318C219.902 41 221.246 40.712 222.35 40.136C223.454 39.56 224.342 38.792 225.014 37.832C225.71 36.848 226.202 35.732 226.49 34.484C226.802 33.212 226.958 31.88 226.958 30.488H218.57C218.474 31.208 218.27 31.832 217.958 32.36C217.67 32.888 217.178 33.308 216.482 33.62C215.858 33.932 215.27 34.088 214.718 34.088H201.686C201.422 34.088 201.134 34.052 200.822 33.98C200.51 33.884 200.198 33.764 199.886 33.62C199.574 33.476 199.286 33.296 199.022 33.08C198.758 32.864 198.554 32.624 198.41 32.36C198.122 31.832 197.918 31.208 197.798 30.488H189.41ZM189.41 24.656H197.798C197.918 23.912 198.122 23.288 198.41 22.784C198.722 22.256 199.214 21.836 199.886 21.524C200.51 21.212 201.11 21.056 201.686 21.056H214.718C215.27 21.056 215.858 21.212 216.482 21.524C217.202 21.86 217.694 22.28 217.958 22.784C218.27 23.288 218.474 23.912 218.57 24.656H226.958C226.958 23.264 226.802 21.932 226.49 20.66C226.202 19.388 225.71 18.272 225.014 17.312C224.342 16.352 223.454 15.584 222.35 15.008C221.246 14.432 219.902 14.144 218.318 14.144H198.086C196.502 14.144 195.158 14.432 194.054 15.008C192.95 15.584 192.05 16.352 191.354 17.312C190.682 18.272 190.19 19.388 189.878 20.66C189.566 21.932 189.41 23.264 189.41 24.656Z" fill="white"/>
</svg>
