<svg width="127" height="110" viewBox="0 0 127 110" fill="none" xmlns="http://www.w3.org/2000/svg">
<rect x="10.7119" y="1.83594" width="104.54" height="105.684" rx="13.5" stroke="#79FA51" stroke-width="3" stroke-linecap="round" stroke-linejoin="round"/>
<path d="M84.9946 48.9412C83.7201 49.7138 82.1218 49.7138 80.8474 48.9412L57.6123 34.8557C54.1513 32.7575 55.6386 27.4351 59.6859 27.4351H106.156C110.203 27.4351 111.691 32.7576 108.23 34.8557L84.9946 48.9412Z" fill="#79FA51"/>
<path d="M45.9721 48.9412C44.6977 49.7138 43.0994 49.7138 41.8249 48.9412L18.5898 34.8557C15.1288 32.7575 16.6161 27.4351 20.6634 27.4351H67.1336C71.1809 27.4351 72.6682 32.7576 69.2072 34.8557L45.9721 48.9412Z" fill="#79FA51"/>
<path d="M41.8248 62.2942C43.0992 61.5216 44.6975 61.5216 45.972 62.2942L69.207 76.3797C72.6681 78.4778 71.1807 83.8002 67.1334 83.8002H20.6633C16.616 83.8002 15.1287 78.4778 18.5897 76.3797L41.8248 62.2942Z" fill="#79FA51"/>
<path d="M80.8472 62.2942C82.1217 61.5216 83.72 61.5216 84.9944 62.2942L108.23 76.3797C111.691 78.4778 110.203 83.8002 106.156 83.8002H59.6857C55.6384 83.8002 54.1511 78.4778 57.6122 76.3797L80.8472 62.2942Z" fill="#79FA51"/>
</svg>
