<svg width="948" height="918" viewBox="0 0 948 918" fill="none" xmlns="http://www.w3.org/2000/svg">
<path d="M947.755 444.115C947.864 447.41 947.936 450.714 947.973 454.026L934.974 454.168C934.991 455.777 935 457.387 935 459C935 460.613 934.991 462.223 934.974 463.831L947.973 463.974C947.936 467.286 947.864 470.59 947.755 473.884L934.763 473.457C934.657 476.661 934.517 479.856 934.342 483.042L947.322 483.754C947.141 487.066 946.923 490.368 946.669 493.66L933.707 492.661C933.461 495.858 933.18 499.045 932.864 502.223L945.8 503.508C945.473 506.804 945.109 510.089 944.71 513.364L931.806 511.791C931.417 514.978 930.994 518.154 930.537 521.319L943.403 523.178C942.931 526.449 942.422 529.71 941.879 532.958L929.057 530.814C928.527 533.982 927.963 537.14 927.364 540.285L940.135 542.716C939.518 545.958 938.865 549.189 938.178 552.407L925.465 549.693C924.794 552.836 924.088 555.968 923.349 559.086L935.999 562.084C935.238 565.297 934.441 568.497 933.611 571.684L921.031 568.405C920.221 571.512 919.377 574.607 918.5 577.688L931.004 581.247C930.099 584.425 929.16 587.589 928.188 590.739L915.767 586.902C914.82 589.967 913.84 593.018 912.827 596.055L925.16 600.167C924.114 603.303 923.035 606.424 921.922 609.53L909.684 605.144C908.603 608.162 907.489 611.165 906.342 614.153L918.48 618.809C917.296 621.896 916.079 624.967 914.829 628.022L902.797 623.098C901.583 626.065 900.337 629.015 899.06 631.95L910.98 637.139C909.66 640.17 908.308 643.184 906.924 646.181L895.122 640.731C893.778 643.642 892.402 646.537 890.995 649.415L902.675 655.124C901.224 658.091 899.742 661.042 898.228 663.974L886.676 658.011C885.205 660.861 883.703 663.694 882.17 666.509L893.588 672.724C892.01 675.625 890.4 678.506 888.759 681.37L877.48 674.907C875.885 677.69 874.26 680.456 872.606 683.203L883.742 689.91C882.038 692.738 880.305 695.547 878.541 698.336L867.553 691.388C865.839 694.1 864.095 696.793 862.322 699.466L873.157 706.65C871.333 709.402 869.479 712.133 867.596 714.844L856.919 707.428C855.089 710.063 853.23 712.678 851.344 715.273L861.859 722.917C859.918 725.588 857.948 728.237 855.95 730.865L845.601 722.997C843.659 725.55 841.69 728.083 839.694 730.596L849.871 738.684C847.818 741.268 845.736 743.831 843.627 746.371L833.625 738.067C831.575 740.536 829.499 742.983 827.397 745.408L837.22 753.923C835.058 756.417 832.87 758.889 830.654 761.337L821.014 752.615C818.861 754.995 816.682 757.353 814.478 759.688L823.931 768.612C821.666 771.011 819.375 773.387 817.058 775.739L807.796 766.617C805.544 768.904 803.266 771.168 800.965 773.408L810.032 782.724C807.668 785.025 805.279 787.302 802.865 789.554L793.996 780.049C791.649 782.239 789.279 784.405 786.885 786.547L795.552 796.236C793.093 798.435 790.61 800.61 788.103 802.76L779.641 792.891C777.205 794.98 774.746 797.044 772.264 799.083L780.517 809.127C777.967 811.223 775.394 813.292 772.799 815.336L764.757 805.121C762.237 807.106 759.694 809.065 757.129 810.998L764.956 821.379C762.32 823.366 759.661 825.327 756.981 827.262L749.373 816.72C746.773 818.597 744.151 820.448 741.509 822.272L748.896 832.97C746.18 834.846 743.442 836.694 740.683 838.516L733.521 827.667C730.844 829.434 728.148 831.174 725.431 832.887L732.367 843.883C729.576 845.643 726.765 847.376 723.934 849.081L717.228 837.943C714.479 839.598 711.711 841.226 708.924 842.826L715.397 854.1C712.537 855.742 709.658 857.356 706.759 858.941L700.521 847.536C697.704 849.076 694.869 850.589 692.016 852.073L698.016 863.606C695.092 865.127 692.15 866.619 689.19 868.082L683.43 856.428C680.55 857.851 677.653 859.246 674.739 860.612L680.257 872.383C677.274 873.781 674.274 875.15 671.256 876.489L665.983 864.606C663.049 865.909 660.098 867.182 657.131 868.426L662.158 880.415C659.117 881.689 656.061 882.934 652.988 884.148L648.21 872.058C645.227 873.237 642.228 874.386 639.214 875.506L643.742 887.692C640.649 888.841 637.54 889.96 634.416 891.048L630.141 878.771C627.115 879.825 624.074 880.849 621.018 881.843L625.04 894.205C621.9 895.227 618.745 896.217 615.575 897.176L611.809 884.734C608.745 885.661 605.666 886.559 602.574 887.426L606.083 899.943C602.907 900.834 599.717 901.693 596.513 902.521L593.261 889.934C590.157 890.736 587.04 891.508 583.91 892.248L586.903 904.899C583.697 905.658 580.477 906.385 577.246 907.08L574.512 894.371C571.372 895.046 568.22 895.691 565.057 896.304L567.53 909.066C564.3 909.692 561.059 910.286 557.805 910.848L555.592 898.038C552.426 898.585 549.248 899.101 546.06 899.585L548.011 912.438C544.759 912.931 541.496 913.393 538.222 913.823L536.531 900.933C533.35 901.35 530.158 901.736 526.956 902.09L528.386 915.012C525.109 915.374 521.823 915.704 518.527 916.001L517.359 903.054C514.169 903.342 510.969 903.598 507.76 903.823L508.668 916.791C505.372 917.022 502.067 917.22 498.753 917.385L498.106 904.401C494.912 904.56 491.71 904.688 488.499 904.784L488.887 917.778C485.591 917.876 482.287 917.942 478.975 917.975L478.845 904.976C477.232 904.992 475.617 905 474 905C472.383 905 470.768 904.992 469.155 904.976L469.026 917.975C465.713 917.942 462.409 917.876 459.113 917.778L459.501 904.784C456.29 904.688 453.088 904.56 449.894 904.401L449.247 917.385C445.933 917.22 442.628 917.022 439.332 916.791L440.24 903.823C437.031 903.598 433.831 903.342 430.641 903.054L429.473 916.001C426.177 915.704 422.891 915.374 419.614 915.012L421.044 902.09C417.842 901.736 414.65 901.35 411.469 900.933L409.778 913.823C406.504 913.393 403.241 912.931 399.989 912.438L401.94 899.585C398.752 899.101 395.574 898.585 392.408 898.038L390.195 910.848C386.942 910.286 383.7 909.692 380.47 909.066L382.943 896.304C379.78 895.691 376.628 895.046 373.488 894.371L370.754 907.08C367.523 906.385 364.303 905.658 361.097 904.899L364.09 892.248C360.96 891.508 357.843 890.736 354.739 889.934L351.487 902.521C348.283 901.693 345.093 900.834 341.917 899.943L345.426 887.426C342.334 886.559 339.255 885.661 336.19 884.734L332.425 897.176C329.255 896.217 326.1 895.227 322.96 894.205L326.982 881.843C323.926 880.849 320.885 879.825 317.859 878.771L313.584 891.048C310.46 889.96 307.351 888.841 304.258 887.692L308.786 875.506C305.772 874.386 302.773 873.237 299.789 872.058L295.012 884.148C291.939 882.934 288.882 881.689 285.842 880.415L290.869 868.426C287.902 867.182 284.951 865.909 282.017 864.606L276.744 876.489C273.726 875.15 270.726 873.781 267.743 872.383L273.261 860.612C270.347 859.246 267.449 857.851 264.57 856.428L258.81 868.082C255.85 866.619 252.908 865.127 249.984 863.606L255.984 852.073C253.131 850.589 250.295 849.076 247.479 847.536L241.241 858.941C238.342 857.356 235.463 855.742 232.603 854.1L239.076 842.826C236.289 841.226 233.521 839.598 230.772 837.943L224.066 849.08C221.235 847.376 218.424 845.643 215.633 843.883L222.569 832.887C219.852 831.174 217.155 829.433 214.479 827.667L207.317 838.515C204.558 836.694 201.82 834.845 199.104 832.97L206.491 822.272C203.849 820.448 201.227 818.597 198.627 816.72L191.019 827.262C188.339 825.327 185.68 823.366 183.044 821.378L190.87 810.998C188.306 809.065 185.763 807.106 183.243 805.121L175.201 815.336C172.605 813.292 170.033 811.223 167.483 809.127L175.736 799.083C173.254 797.044 170.795 794.98 168.359 792.891L159.897 802.76C157.39 800.61 154.907 798.435 152.448 796.236L161.115 786.547C158.721 784.405 156.351 782.239 154.004 780.049L145.135 789.554C142.721 787.302 140.332 785.025 137.968 782.724L147.035 773.408C144.733 771.168 142.456 768.904 140.204 766.617L130.942 775.739C128.625 773.387 126.334 771.011 124.069 768.612L133.522 759.687C131.318 757.353 129.139 754.995 126.986 752.615L117.346 761.337C115.13 758.889 112.942 756.417 110.78 753.923L120.603 745.408C118.501 742.983 116.425 740.536 114.375 738.067L104.373 746.371C102.264 743.831 100.182 741.268 98.1285 738.684L108.306 730.595C106.31 728.083 104.341 725.55 102.399 722.997L92.0504 730.865C90.0522 728.237 88.0822 725.587 86.1409 722.917L96.656 715.273C94.7695 712.678 92.911 710.063 91.0809 707.428L80.4037 714.844C78.5208 712.133 76.667 709.402 74.8427 706.65L85.6775 699.466C83.905 696.793 82.1612 694.1 80.4466 691.388L69.4587 698.336C67.6952 695.546 65.9616 692.738 64.2583 689.91L75.3945 683.202C73.74 680.456 72.1151 677.69 70.5202 674.906L59.2405 681.369C57.6 678.506 55.9902 675.624 54.4116 672.724L65.8296 666.509C64.2973 663.694 62.7951 660.861 61.3237 658.011L49.7723 663.974C48.2583 661.042 46.7758 658.091 45.3252 655.124L57.0048 649.415C55.5981 646.537 54.2224 643.642 52.8781 640.731L41.0757 646.181C39.6916 643.184 38.3397 640.17 37.0204 637.139L48.9402 631.95C47.6627 629.015 46.4169 626.065 45.203 623.098L33.1714 628.022C31.9212 624.967 30.7039 621.896 29.5198 618.809L41.6576 614.153C40.5114 611.165 39.3975 608.162 38.3161 605.144L26.0781 609.53C24.9652 606.424 23.8857 603.303 22.8402 600.167L35.1727 596.055C34.16 593.018 33.1802 589.967 32.2335 586.902L19.8125 590.739C18.8396 587.589 17.9007 584.425 16.9962 581.247L29.4996 577.688C28.6226 574.607 27.7789 571.513 26.969 568.405L14.3893 571.684C13.5586 568.497 12.7624 565.297 12.001 562.084L24.6507 559.087C23.9116 555.968 23.2064 552.837 22.5353 549.693L9.82177 552.407C9.13468 549.189 8.4824 545.958 7.8653 542.716L20.6361 540.285C20.0374 537.14 19.4729 533.982 18.9429 530.814L6.12102 532.959C5.57755 529.71 5.06929 526.45 4.59664 523.178L17.463 521.319C17.0057 518.154 16.5827 514.978 16.1944 511.791L3.28988 513.364C2.89083 510.089 2.52738 506.804 2.19991 503.508L15.1362 502.223C14.8205 499.045 14.5392 495.858 14.2927 492.661L1.33114 493.66C1.07729 490.368 0.859314 487.066 0.67758 483.754L13.658 483.042C13.4832 479.856 13.3429 476.661 13.2375 473.457L0.244518 473.885C0.136117 470.59 0.0635764 467.286 0.0272601 463.974L13.0265 463.832C13.0088 462.223 13 460.613 13 459C13 457.387 13.0088 455.777 13.0265 454.169L0.0272559 454.026C0.0635695 450.714 0.136108 447.41 0.244506 444.116L13.2375 444.543C13.3429 441.339 13.4832 438.144 13.658 434.958L0.677564 434.246C0.859297 430.934 1.07727 427.632 1.33112 424.34L14.2927 425.339C14.5391 422.142 14.8204 418.955 15.1362 415.777L2.19989 414.492C2.52735 411.196 2.8908 407.911 3.28985 404.636L16.1944 406.209C16.5827 403.022 17.0057 399.846 17.463 396.681L4.59661 394.822C5.06926 391.551 5.57752 388.29 6.121 385.041L18.9428 387.186C19.4729 384.018 20.0374 380.861 20.6361 377.715L7.86526 375.284C8.48236 372.042 9.13465 368.811 9.82174 365.593L22.5352 368.307C23.2063 365.164 23.9116 362.032 24.6507 358.914L12.001 355.916C12.7624 352.703 13.5586 349.503 14.3892 346.316L26.9689 349.595C27.7789 346.488 28.6225 343.393 29.4995 340.312L16.9961 336.753C17.9007 333.575 18.8396 330.411 19.8125 327.261L32.2335 331.098C33.1802 328.033 34.16 324.982 35.1726 321.945L22.8401 317.833C23.8857 314.697 24.9652 311.576 26.0781 308.47L38.3161 312.856C39.3975 309.838 40.5114 306.835 41.6576 303.847L29.5198 299.191C30.7039 296.104 31.9212 293.033 33.1714 289.978L45.203 294.902C46.4169 291.935 47.6628 288.985 48.9402 286.05L37.0204 280.861C38.3397 277.83 39.6916 274.816 41.0758 271.819L52.8781 277.269C54.2225 274.358 55.5982 271.463 57.0048 268.585L45.3252 262.876C46.7758 259.908 48.2583 256.958 49.7723 254.026L61.3237 259.989C62.7952 257.139 64.2973 254.306 65.8297 251.491L54.4116 245.276C55.9903 242.375 57.6001 239.494 59.2406 236.63L70.5202 243.093C72.1152 240.31 73.7401 237.544 75.3945 234.797L64.2583 228.09C65.9616 225.262 67.6952 222.453 69.4587 219.664L80.4467 226.612C82.1613 223.9 83.9051 221.207 85.6776 218.534L74.8427 211.35C76.667 208.598 78.5208 205.867 80.4037 203.156L91.081 210.572C92.9111 207.937 94.7696 205.322 96.6561 202.727L86.141 195.083C88.0823 192.412 90.0523 189.763 92.0505 187.135L102.399 195.003C104.341 192.45 106.31 189.917 108.306 187.404L98.1286 179.316C100.182 176.732 102.264 174.169 104.373 171.629L114.375 179.933C116.425 177.464 118.501 175.017 120.603 172.592L110.78 164.077C112.942 161.583 115.13 159.111 117.346 156.663L126.986 165.385C129.139 163.005 131.318 160.647 133.522 158.312L124.069 149.388C126.334 146.989 128.625 144.613 130.942 142.261L140.204 151.383C142.456 149.096 144.734 146.832 147.035 144.592L137.968 135.276C140.332 132.975 142.721 130.698 145.135 128.446L154.004 137.951C156.351 135.761 158.721 133.595 161.115 131.453L152.448 121.764C154.907 119.565 157.39 117.39 159.897 115.24L168.359 125.109C170.795 123.02 173.254 120.956 175.736 118.917L167.483 108.873C170.033 106.777 172.606 104.708 175.201 102.664L183.243 112.879C185.763 110.894 188.306 108.935 190.871 107.002L183.044 96.6214C185.68 94.6339 188.339 92.6727 191.019 90.7383L198.627 101.28C201.227 99.4029 203.849 97.5521 206.491 95.7276L199.104 85.0302C201.82 83.1544 204.558 81.3057 207.317 79.4845L214.479 90.3334C217.156 88.5664 219.852 86.826 222.569 85.1126L215.633 74.1172C218.424 72.3568 221.235 70.6241 224.066 68.9195L230.772 80.0566C233.521 78.4016 236.289 76.7738 239.076 75.1736L232.603 63.8997C235.463 62.2576 238.342 60.6438 241.241 59.0587L247.479 70.4644C250.296 68.9238 253.131 67.411 255.984 65.9265L249.984 54.394C252.908 52.8729 255.85 51.3807 258.81 49.9177L264.57 61.5719C267.45 60.1487 270.347 58.7539 273.261 57.3879L267.743 45.6169C270.726 44.2187 273.726 42.85 276.744 41.511L282.017 53.3935C284.951 52.0914 287.902 50.8182 290.869 49.5743L285.842 37.5853C288.882 36.3108 291.939 35.0662 295.012 33.8519L299.79 45.9421C302.773 44.7632 305.772 43.6136 308.786 42.4939L304.258 30.3077C307.351 29.1586 310.46 28.04 313.584 26.9522L317.859 39.2292C320.885 38.1753 323.926 37.1513 326.982 36.1573L322.96 23.795C326.1 22.7734 329.255 21.7828 332.425 20.8236L336.191 33.2662C339.255 32.3386 342.334 31.441 345.426 30.574L341.917 18.0567C345.093 17.1661 348.283 16.3067 351.487 15.479L354.739 28.0657C357.843 27.2637 360.96 26.4922 364.09 25.7516L361.097 13.1009C364.303 12.3422 367.522 11.6151 370.754 10.92L373.488 23.6293C376.628 22.9539 379.78 22.3095 382.943 21.6964L380.47 8.93383C383.7 8.30788 386.941 7.71372 390.195 7.15169L392.408 19.9619C395.574 19.4149 398.752 18.8992 401.94 18.4151L399.989 5.5624C403.241 5.0686 406.504 4.60683 409.778 4.17742L411.469 17.067C414.65 16.6497 417.842 16.2638 421.044 15.9096L419.614 2.98845C422.891 2.62605 426.177 2.29598 429.473 1.99861L430.641 14.946C433.831 14.6582 437.031 14.4018 440.24 14.1772L439.332 1.20895C442.628 0.978254 445.933 0.780188 449.247 0.615086L449.894 13.599C453.088 13.4399 456.29 13.3122 459.501 13.2163L459.113 0.222084C462.409 0.123621 465.713 0.0577382 469.025 0.0247565L469.155 13.0241C470.768 13.0081 472.383 13 474 13C475.617 13 477.232 13.008 478.845 13.0241L478.974 0.0247543C482.287 0.0577347 485.591 0.123616 488.887 0.222078L488.499 13.2163C491.71 13.3122 494.912 13.4399 498.106 13.599L498.753 0.615078C502.067 0.780179 505.372 0.978244 508.668 1.20894L507.76 14.1772C510.969 14.4018 514.169 14.6582 517.359 14.946L518.527 1.99859C521.823 2.29597 525.109 2.62603 528.386 2.98844L526.956 15.9096C530.158 16.2638 533.35 16.6497 536.531 17.067L538.222 4.1774C541.496 4.60681 544.759 5.06858 548.011 5.56238L546.06 18.4151C549.248 18.8992 552.426 19.4149 555.592 19.9619L557.805 7.15168C561.058 7.71371 564.3 8.30787 567.53 8.93382L565.057 21.6964C568.22 22.3095 571.372 22.9539 574.512 23.6292L577.246 10.92C580.477 11.6151 583.697 12.3422 586.903 13.1009L583.91 25.7516C587.04 26.4922 590.157 27.2637 593.261 28.0657L596.513 15.479C599.717 16.3067 602.907 17.1661 606.083 18.0568L602.574 30.574C605.666 31.441 608.745 32.3386 611.81 33.2662L615.575 20.8236C618.745 21.7828 621.9 22.7734 625.04 23.795L621.018 36.1573C624.074 37.1513 627.115 38.1753 630.141 39.2292L634.416 26.9522C637.54 28.04 640.649 29.1586 643.742 30.3077L639.214 42.4939C642.229 43.6137 645.227 44.7632 648.211 45.9421L652.988 33.8519C656.061 35.0662 659.118 36.3108 662.158 37.5854L657.131 49.5743C660.098 50.8182 663.049 52.0914 665.983 53.3936L671.256 41.5111C674.274 42.85 677.274 44.2188 680.257 45.6169L674.739 57.388C677.653 58.754 680.551 60.1488 683.43 61.572L689.19 49.9178C692.15 51.3808 695.092 52.873 698.016 54.3941L692.016 65.9266C694.869 67.4111 697.705 68.9238 700.521 70.4644L706.759 59.0587C709.658 60.6438 712.537 62.2576 715.397 63.8997L708.924 75.1736C711.711 76.7738 714.479 78.4017 717.228 80.0567L723.934 68.9196C726.765 70.6242 729.576 72.3568 732.367 74.1172L725.431 85.1126C728.148 86.8261 730.845 88.5665 733.521 90.3335L740.683 79.4846C743.442 81.3058 746.18 83.1545 748.896 85.0303L741.509 95.7277C744.151 97.5521 746.773 99.4029 749.373 101.28L756.981 90.7383C759.661 92.6727 762.32 94.634 764.956 96.6216L757.13 107.002C759.694 108.935 762.237 110.894 764.757 112.879L772.799 102.664C775.395 104.708 777.967 106.777 780.517 108.873L772.264 118.917C774.746 120.956 777.205 123.02 779.641 125.109L788.103 115.24C790.61 117.39 793.093 119.565 795.552 121.764L786.885 131.453C789.279 133.595 791.649 135.761 793.996 137.951L802.865 128.446C805.279 130.698 807.668 132.975 810.032 135.276L800.965 144.592C803.267 146.832 805.544 149.096 807.796 151.383L817.058 142.261C819.375 144.613 821.666 146.989 823.931 149.388L814.478 158.313C816.682 160.647 818.861 163.005 821.014 165.385L830.654 156.663C832.87 159.111 835.058 161.583 837.22 164.077L827.397 172.592C829.499 175.017 831.575 177.464 833.625 179.933L843.627 171.629C845.736 174.169 847.818 176.732 849.872 179.316L839.694 187.405C841.69 189.917 843.659 192.45 845.601 195.003L855.95 187.135C857.948 189.763 859.918 192.413 861.859 195.083L851.344 202.727C853.23 205.322 855.089 207.937 856.919 210.572L867.596 203.156C869.479 205.867 871.333 208.598 873.157 211.35L862.323 218.534C864.095 221.207 865.839 223.9 867.553 226.612L878.541 219.664C880.305 222.454 882.038 225.262 883.742 228.09L872.606 234.798C874.26 237.544 875.885 240.31 877.48 243.094L888.759 236.631C890.4 239.494 892.01 242.376 893.588 245.276L882.17 251.491C883.703 254.306 885.205 257.139 886.676 259.989L898.228 254.026C899.742 256.958 901.224 259.909 902.675 262.876L890.995 268.585C892.402 271.463 893.778 274.358 895.122 277.269L906.924 271.819C908.308 274.816 909.66 277.83 910.98 280.861L899.06 286.05C900.337 288.985 901.583 291.935 902.797 294.902L914.829 289.978C916.079 293.033 917.296 296.104 918.48 299.191L906.342 303.847C907.489 306.835 908.603 309.838 909.684 312.856L921.922 308.47C923.035 311.576 924.114 314.697 925.16 317.833L912.827 321.945C913.84 324.982 914.82 328.033 915.766 331.098L928.187 327.261C929.16 330.411 930.099 333.575 931.004 336.753L918.5 340.312C919.377 343.393 920.221 346.487 921.031 349.595L933.611 346.316C934.441 349.503 935.238 352.703 935.999 355.916L923.349 358.913C924.088 362.032 924.794 365.163 925.465 368.307L938.178 365.593C938.865 368.811 939.518 372.042 940.135 375.284L927.364 377.715C927.963 380.86 928.527 384.018 929.057 387.186L941.879 385.041C942.422 388.29 942.931 391.55 943.403 394.822L930.537 396.681C930.994 399.846 931.417 403.022 931.806 406.209L944.71 404.636C945.109 407.911 945.473 411.196 945.8 414.492L932.864 415.777C933.18 418.955 933.461 422.142 933.707 425.339L946.669 424.34C946.923 427.632 947.141 430.934 947.322 434.246L934.342 434.958C934.517 438.144 934.657 441.339 934.763 444.543L947.755 444.115Z" stroke="#00FFE0" stroke-opacity="0.7" stroke-width="26" stroke-dasharray="10 10"/>
</svg>
