<svg width="271" height="487" viewBox="0 0 271 487" fill="none" xmlns="http://www.w3.org/2000/svg">
<path d="M269.5 437.727C269.5 433.512 266.295 429.119 259.548 424.838C252.873 420.602 243.116 416.732 230.924 413.46C206.563 406.921 172.825 402.859 135.5 402.859C98.1751 402.859 64.4369 406.921 40.0759 413.46C27.8844 416.732 18.1266 420.602 11.452 424.838C4.70464 429.119 1.5 433.512 1.5 437.727C1.5 442.031 4.80968 447.233 11.5931 452.735C18.2951 458.17 28.0704 463.634 40.2441 468.503C64.5796 478.236 98.2647 485.5 135.5 485.5C172.735 485.5 206.42 478.236 230.756 468.503C242.93 463.634 252.705 458.17 259.407 452.735C266.19 447.233 269.5 442.031 269.5 437.727Z" stroke="#D637ED" stroke-width="3"/>
<path d="M236.61 438.902C236.61 424.045 191.702 412 136.305 412C80.9082 412 36 424.045 36 438.902C36 453.76 80.9082 475.351 136.305 475.351C191.702 475.351 236.61 453.76 236.61 438.902Z" fill="#D637ED"/>
<path d="M236.61 438.902C236.61 424.045 191.702 412 136.305 412C80.9082 412 36 424.045 36 438.902C36 453.76 80.9082 475.351 136.305 475.351C191.702 475.351 236.61 453.76 236.61 438.902Z" stroke="#D637ED"/>
<rect x="1.5" y="-1.5" width="61" height="522" rx="13.5" transform="matrix(1 0 0 -1 104 431)" stroke="#00E3FF" stroke-width="3"/>
</svg>
