<svg width="109" height="126" viewBox="0 0 109 126" fill="none" xmlns="http://www.w3.org/2000/svg">
<path d="M49.5748 37.9626C53.1518 31.7671 62.3156 32.492 64.8739 39.1729L77.1621 71.2622C79.1814 76.5353 75.5928 82.2753 69.9679 82.7693L37.5069 85.6203C30.6548 86.2221 25.9628 78.8599 29.402 72.9029L49.5748 37.9626Z" stroke="#D637ED" stroke-width="3"/>
<rect x="1.5" y="7.23535" width="104.54" height="105.684" rx="13.5" stroke="#D938ED" stroke-width="3" stroke-linecap="round" stroke-linejoin="round"/>
<path d="M46.7516 55.4493C49.9908 49.6231 58.3705 49.6231 61.6097 55.4493L67.1251 65.3697C70.275 71.0353 66.1784 78 59.6961 78H48.6653C42.183 78 38.0864 71.0353 41.2362 65.3697L46.7516 55.4493Z" fill="#D637ED" stroke="#D637ED" stroke-width="3"/>
<path d="M46.6547 18.6554C49.7821 12.3719 58.7465 12.3719 61.8739 18.6554L92.6634 80.517C95.4758 86.1677 91.3657 92.8044 85.0538 92.8044H23.4748C17.1629 92.8044 13.0528 86.1677 15.8653 80.517L46.6547 18.6554Z" stroke="#D637ED" stroke-width="3"/>
</svg>
