<svg width="108" height="109" viewBox="0 0 108 109" fill="none" xmlns="http://www.w3.org/2000/svg">
<rect x="1.5" y="1.5" width="104.54" height="105.684" rx="13.5" stroke="#79FA51" stroke-width="3" stroke-linecap="round" stroke-linejoin="round"/>
<rect x="41.541" y="54.126" width="23.313" height="30.1773" stroke="#79FA51" stroke-width="3"/>
<path d="M75.1514 37.3015C75.1514 39.7634 73.17 42.3751 69.0984 44.4606C65.1066 46.5052 59.4874 47.814 53.1985 47.814C46.9096 47.814 41.2905 46.5052 37.2986 44.4606C33.227 42.3751 31.2456 39.7634 31.2456 37.3015C31.2456 34.8396 33.227 32.2279 37.2986 30.1425C41.2905 28.0979 46.9096 26.7891 53.1985 26.7891C59.4874 26.7891 65.1066 28.0979 69.0984 30.1425C73.17 32.2279 75.1514 34.8396 75.1514 37.3015Z" fill="#C4C4C4" fill-opacity="0.06" stroke="#79FA51" stroke-width="3"/>
<path d="M68.2867 36.729C68.2867 38.0662 67.1637 39.6806 64.4247 41.0501C61.7754 42.3747 58.0105 43.2373 53.77 43.2373C49.5295 43.2373 45.7647 42.3747 43.1154 41.0501C40.3764 39.6806 39.2534 38.0662 39.2534 36.729C39.2534 35.3918 40.3764 33.7774 43.1154 32.4079C45.7647 31.0833 49.5295 30.2207 53.77 30.2207C58.0105 30.2207 61.7754 31.0833 64.4247 32.4079C67.1637 33.7774 68.2867 35.3918 68.2867 36.729Z" fill="#79FA51" stroke="#79FA51" stroke-width="3"/>
</svg>
