<svg width="327" height="64" viewBox="0 0 327 64" fill="none" xmlns="http://www.w3.org/2000/svg">
<path d="M19.4937 50.8652C-1.61969 50.8652 3.20624 41.8905 1.99976 3H324.733C324.934 11.3515 325.216 30.5225 324.733 40.3947C324.251 50.2669 310.457 51.4884 303.62 50.8652H19.4937Z" stroke="#BE00FF" stroke-width="3"/>
<path d="M120.044 20.912H95.132C94.772 20.912 94.436 20.96 94.124 21.056C93.836 21.128 93.476 21.368 93.044 21.776C92.636 22.184 92.348 22.64 92.18 23.144C92.036 23.624 91.916 24.128 91.82 24.656V30.488C91.916 31.016 92.036 31.532 92.18 32.036C92.348 32.516 92.636 32.96 93.044 33.368C93.26 33.584 93.452 33.752 93.62 33.872C93.788 33.968 93.956 34.052 94.124 34.124C94.316 34.172 94.508 34.208 94.7 34.232C94.892 34.256 95.132 34.292 95.42 34.34H120.116V40.928H91.928C90.872 40.928 89.828 40.76 88.796 40.424C87.764 40.088 86.828 39.608 85.988 38.984C85.172 38.336 84.5 37.556 83.972 36.644C83.468 35.708 83.216 34.664 83.216 33.512V21.632C83.216 20.456 83.48 19.4 84.008 18.464C84.536 17.528 85.22 16.748 86.06 16.124C86.9 15.476 87.848 14.984 88.904 14.648C89.96 14.312 91.016 14.144 92.072 14.144H120.044V20.912ZM124.21 14.144V41H132.382V30.524H137.962V24.656H132.382V14.144H124.21ZM156.718 14.144H148.546V24.656H142.714V30.524H148.546V41H156.718V14.144ZM182.47 21.668L171.202 41.036H162.49L177.682 14.144H187.33L202.558 41.036H193.81L182.47 21.668ZM210.826 24.116H219.142V41H210.826V24.116ZM199.198 14.144H230.77V20.66H199.198V14.144Z" fill="white"/>
</svg>
