<svg width="1351" height="1314" viewBox="0 0 1351 1314" fill="none" xmlns="http://www.w3.org/2000/svg">
<path d="M1266.49 641.167C1266.57 644.482 1266.63 647.803 1266.66 651.131L1253.66 651.246C1253.68 652.872 1253.68 654.499 1253.68 656.128C1253.68 657.757 1253.68 659.384 1253.66 661.01L1266.66 661.125C1266.63 664.453 1266.57 667.774 1266.49 671.088L1253.49 670.745C1253.41 673.983 1253.29 677.214 1253.15 680.437L1266.14 681.01C1265.99 684.329 1265.82 687.64 1265.61 690.944L1252.64 690.141C1252.43 693.384 1252.21 696.62 1251.95 699.847L1264.91 700.881C1264.64 704.185 1264.35 707.482 1264.03 710.771L1251.09 709.507C1250.78 712.737 1250.43 715.958 1250.06 719.172L1262.97 720.666C1262.59 723.968 1262.18 727.262 1261.74 730.547L1248.86 728.822C1248.43 732.03 1247.97 735.23 1247.48 738.42L1260.34 740.375C1259.84 743.661 1259.31 746.937 1258.75 750.204L1245.94 748.019C1245.39 751.217 1244.82 754.406 1244.22 757.586L1256.99 760.001C1256.37 763.257 1255.73 766.503 1255.06 769.739L1242.33 767.096C1241.67 770.274 1240.98 773.442 1240.27 776.601L1252.95 779.472C1252.21 782.71 1251.45 785.939 1250.66 789.156L1238.04 786.057C1237.26 789.2 1236.47 792.332 1235.64 795.453L1248.21 798.777C1247.36 801.991 1246.48 805.193 1245.57 808.385L1233.07 804.835C1232.18 807.953 1231.27 811.06 1230.33 814.156L1242.77 817.929C1241.81 821.101 1240.82 824.261 1239.8 827.409L1227.43 823.414C1226.44 826.502 1225.41 829.578 1224.36 832.643L1236.66 836.859C1235.58 839.997 1234.48 843.123 1233.35 846.237L1221.13 841.802C1220.02 844.846 1218.89 847.878 1217.74 850.898L1229.88 855.55C1228.69 858.651 1227.47 861.739 1226.23 864.814L1214.18 859.945C1212.96 862.949 1211.72 865.94 1210.46 868.918L1222.42 874C1221.13 877.053 1219.8 880.092 1218.46 883.119L1206.58 877.825C1205.26 880.786 1203.92 883.734 1202.54 886.668L1214.32 892.171C1212.92 895.175 1211.49 898.166 1210.03 901.142L1198.36 895.431C1196.93 898.342 1195.48 901.239 1194.01 904.123L1205.58 910.039C1204.07 912.993 1202.54 915.933 1200.98 918.858L1189.51 912.738C1187.98 915.596 1186.43 918.44 1184.86 921.268L1196.22 927.589C1194.61 930.488 1192.97 933.372 1191.31 936.24L1180.06 929.722C1178.44 932.525 1176.79 935.314 1175.11 938.088L1186.24 944.803C1184.53 947.642 1182.8 950.465 1181.03 953.272L1170.02 946.364C1168.3 949.11 1166.55 951.841 1164.78 954.555L1175.67 961.654C1173.86 964.432 1172.03 967.194 1170.17 969.94L1159.4 962.652C1157.59 965.336 1155.75 968.003 1153.89 970.654L1164.52 978.127C1162.62 980.841 1160.69 983.538 1158.73 986.217L1148.23 978.561C1146.32 981.18 1144.39 983.783 1142.43 986.369L1152.81 994.205C1150.81 996.851 1148.79 999.479 1146.74 1002.09L1136.51 994.076C1134.51 996.627 1132.49 999.162 1130.45 1001.68L1140.54 1009.87C1138.45 1012.44 1136.34 1015 1134.21 1017.54L1124.26 1009.18C1122.17 1011.66 1120.07 1014.12 1117.94 1016.57L1127.75 1025.1C1125.57 1027.6 1123.38 1030.09 1121.16 1032.55L1111.5 1023.85C1109.33 1026.26 1107.14 1028.66 1104.93 1031.03L1114.44 1039.89C1112.18 1042.31 1109.9 1044.72 1107.6 1047.11L1098.24 1038.09C1095.99 1040.42 1093.72 1042.74 1091.43 1045.03L1100.64 1054.21C1098.29 1056.56 1095.93 1058.89 1093.55 1061.2L1084.5 1051.86C1082.18 1054.12 1079.83 1056.35 1077.46 1058.57L1086.35 1068.06C1083.93 1070.32 1081.49 1072.57 1079.04 1074.8L1070.31 1065.16C1067.91 1067.34 1065.48 1069.5 1063.04 1071.63L1071.6 1081.42C1069.11 1083.6 1066.6 1085.76 1064.07 1087.9L1055.67 1077.98C1053.2 1080.07 1050.7 1082.14 1048.19 1084.2L1056.42 1094.26C1053.85 1096.36 1051.27 1098.44 1048.67 1100.5L1040.61 1090.29C1038.07 1092.3 1035.5 1094.29 1032.93 1096.26L1040.81 1106.59C1038.18 1108.6 1035.52 1110.59 1032.85 1112.56L1025.14 1102.1C1022.53 1104.02 1019.9 1105.92 1017.26 1107.8L1024.79 1118.39C1022.09 1120.31 1019.38 1122.21 1016.64 1124.09L1009.29 1113.37C1006.61 1115.2 1003.92 1117.02 1001.21 1118.81L1008.39 1129.65C1005.63 1131.48 1002.85 1133.29 1000.05 1135.07L993.059 1124.11C990.327 1125.85 987.579 1127.57 984.815 1129.27L991.624 1140.35C988.798 1142.09 985.957 1143.8 983.099 1145.49L976.476 1134.31C973.689 1135.96 970.887 1137.58 968.069 1139.19L974.505 1150.48C971.626 1152.12 968.732 1153.74 965.822 1155.33L959.576 1143.93C956.73 1145.49 953.868 1147.03 950.992 1148.54L957.047 1160.05C954.119 1161.59 951.176 1163.11 948.219 1164.6L942.356 1153C939.463 1154.46 936.555 1155.9 933.634 1157.31L939.302 1169.01C936.318 1170.46 933.318 1171.88 930.305 1173.28L924.832 1161.49C921.897 1162.85 918.947 1164.19 915.984 1165.51L921.26 1177.39C918.231 1178.73 915.189 1180.05 912.133 1181.35L907.055 1169.38C904.069 1170.65 901.07 1171.89 898.058 1173.11L902.937 1185.16C899.87 1186.4 896.79 1187.62 893.698 1188.81L889.02 1176.68C885.995 1177.85 882.957 1178.99 879.906 1180.11L884.382 1192.32C881.271 1193.46 878.147 1194.57 875.011 1195.66L870.738 1183.39C867.681 1184.45 864.613 1185.49 861.532 1186.51L865.601 1198.85C862.453 1199.89 859.292 1200.9 856.12 1201.89L852.256 1189.48C849.162 1190.44 846.056 1191.38 842.939 1192.29L846.597 1204.77C843.423 1205.7 840.237 1206.6 837.04 1207.48L833.589 1194.95C830.461 1195.81 827.323 1196.65 824.174 1197.46L827.418 1210.05C824.211 1210.87 820.994 1211.68 817.767 1212.45L814.731 1199.81C811.584 1200.57 808.427 1201.3 805.26 1202L808.087 1214.69C804.85 1215.41 801.604 1216.11 798.347 1216.78L795.729 1204.04C792.557 1204.7 789.375 1205.32 786.183 1205.92L788.592 1218.7C785.342 1219.31 782.083 1219.9 778.814 1220.46L776.615 1207.65C773.416 1208.2 770.208 1208.72 766.992 1209.22L768.98 1222.07C765.711 1222.57 762.432 1223.05 759.145 1223.51L757.366 1210.63C754.16 1211.07 750.946 1211.49 747.724 1211.88L749.293 1224.78C746 1225.18 742.699 1225.56 739.39 1225.91L738.032 1212.98C734.812 1213.32 731.584 1213.63 728.348 1213.92L729.497 1226.86C726.204 1227.16 722.904 1227.42 719.596 1227.66L718.657 1214.7C715.419 1214.93 712.173 1215.14 708.92 1215.32L709.65 1228.3C706.347 1228.49 703.037 1228.65 699.72 1228.78L699.199 1215.79C695.967 1215.92 692.728 1216.02 689.483 1216.1L689.795 1229.1C686.48 1229.18 683.158 1229.23 679.829 1229.26L679.725 1216.26C678.096 1216.27 676.465 1216.28 674.832 1216.28C673.199 1216.28 671.568 1216.27 669.939 1216.26L669.835 1229.26C666.507 1229.23 663.185 1229.18 659.87 1229.1L660.182 1216.1C656.936 1216.02 653.697 1215.92 650.465 1215.79L649.945 1228.78C646.628 1228.65 643.318 1228.49 640.015 1228.3L640.744 1215.32C637.491 1215.14 634.246 1214.93 631.008 1214.7L630.069 1227.66C626.761 1227.42 623.46 1227.16 620.168 1226.86L621.316 1213.92C618.08 1213.63 614.852 1213.32 611.632 1212.98L610.274 1225.91C606.965 1225.56 603.664 1225.18 600.372 1224.78L601.94 1211.88C598.718 1211.49 595.504 1211.07 592.299 1210.63L590.52 1223.51C587.233 1223.05 583.954 1222.57 580.684 1222.07L582.673 1209.22C579.456 1208.72 576.248 1208.2 573.05 1207.65L570.851 1220.46C567.582 1219.9 564.322 1219.31 561.073 1218.7L563.481 1205.92C560.29 1205.32 557.108 1204.7 553.935 1204.04L551.318 1216.78C548.061 1216.11 544.814 1215.41 541.577 1214.69L544.405 1202C541.237 1201.3 538.08 1200.57 534.933 1199.81L531.898 1212.45C528.67 1211.68 525.453 1210.88 522.247 1210.05L525.49 1197.46C522.341 1196.65 519.203 1195.81 516.075 1194.95L512.624 1207.48C509.427 1206.6 506.242 1205.7 503.068 1204.77L506.725 1192.29C503.608 1191.38 500.502 1190.44 497.408 1189.48L493.544 1201.89C490.372 1200.9 487.212 1199.89 484.063 1198.85L488.132 1186.51C485.052 1185.49 481.983 1184.45 478.926 1183.39L474.654 1195.66C471.517 1194.57 468.394 1193.46 465.282 1192.32L469.758 1180.11C466.707 1178.99 463.669 1177.85 460.644 1176.68L455.966 1188.81C452.874 1187.62 449.794 1186.4 446.728 1185.16L451.606 1173.11C448.594 1171.89 445.595 1170.65 442.609 1169.38L437.531 1181.35C434.475 1180.05 431.433 1178.73 428.404 1177.39L433.68 1165.51C430.717 1164.19 427.768 1162.85 424.832 1161.49L419.359 1173.28C416.346 1171.88 413.347 1170.46 410.362 1169.01L416.03 1157.31C413.109 1155.9 410.201 1154.46 407.308 1153L401.446 1164.6C398.488 1163.11 395.545 1161.59 392.617 1160.05L398.672 1148.54C395.796 1147.03 392.934 1145.49 390.088 1143.93L383.842 1155.33C380.933 1153.74 378.038 1152.12 375.16 1150.48L381.595 1139.19C378.777 1137.58 375.975 1135.96 373.188 1134.31L366.565 1145.49C363.708 1143.8 360.866 1142.09 358.04 1140.35L364.849 1129.27C362.085 1127.57 359.337 1125.85 356.606 1124.11L349.613 1135.07C346.817 1133.29 344.038 1131.48 341.276 1129.65L348.451 1118.81C345.743 1117.02 343.052 1115.2 340.378 1113.37L333.022 1124.09C330.288 1122.21 327.571 1120.31 324.871 1118.39L332.405 1107.8C329.761 1105.92 327.134 1104.02 324.525 1102.1L316.814 1112.56C314.142 1110.59 311.488 1108.6 308.852 1106.59L316.737 1096.26C314.159 1094.29 311.599 1092.3 309.057 1090.29L300.999 1100.5C298.395 1098.44 295.81 1096.36 293.243 1094.26L301.472 1084.2C298.96 1082.14 296.466 1080.07 293.991 1077.98L285.594 1087.9C283.063 1085.76 280.552 1083.6 278.059 1081.42L286.622 1071.63C284.181 1069.5 281.758 1067.34 279.355 1065.16L270.628 1074.8C268.169 1072.57 265.73 1070.32 263.311 1068.06L272.2 1058.57C269.835 1056.35 267.489 1054.12 265.163 1051.86L256.114 1061.2C253.732 1058.89 251.37 1056.56 249.028 1054.21L258.234 1045.03C255.944 1042.74 253.675 1040.42 251.425 1038.09L242.065 1047.11C239.764 1044.72 237.484 1042.31 235.225 1039.89L244.738 1031.03C242.527 1028.66 240.337 1026.26 238.168 1023.85L228.506 1032.55C226.288 1030.09 224.091 1027.6 221.915 1025.1L231.725 1016.57C229.598 1014.13 227.492 1011.66 225.408 1009.18L215.453 1017.54C213.32 1015 211.209 1012.44 209.12 1009.87L219.217 1001.68C217.175 999.162 215.155 996.628 213.157 994.076L202.921 1002.09C200.877 999.479 198.856 996.851 196.857 994.206L207.23 986.369C205.276 983.783 203.345 981.181 201.436 978.561L190.93 986.218C188.977 983.538 187.047 980.841 185.141 978.128L195.778 970.655C193.916 968.003 192.076 965.336 190.26 962.653L179.494 969.94C177.636 967.195 175.801 964.433 173.99 961.655L184.881 954.556C183.111 951.841 181.365 949.11 179.642 946.365L168.63 953.273C166.869 950.465 165.132 947.642 163.419 944.803L174.551 938.089C172.878 935.315 171.229 932.526 169.604 929.722L158.356 936.241C156.693 933.372 155.056 930.488 153.443 927.589L164.803 921.269C163.229 918.44 161.68 915.596 160.155 912.739L148.685 918.858C147.125 915.933 145.589 912.994 144.079 910.039L155.655 904.123C154.181 901.24 152.732 898.342 151.309 895.431L139.63 901.142C138.175 898.166 136.745 895.176 135.342 892.172L147.119 886.668C145.748 883.734 144.402 880.786 143.082 877.825L131.209 883.119C129.86 880.093 128.537 877.053 127.24 874L139.205 868.918C137.941 865.94 136.701 862.949 135.488 859.946L123.434 864.814C122.192 861.739 120.977 858.651 119.789 855.55L131.928 850.898C130.77 847.878 129.639 844.846 128.534 841.802L116.314 846.237C115.184 843.124 114.081 839.998 113.005 836.859L125.302 832.643C124.252 829.579 123.228 826.502 122.23 823.414L109.859 827.409C108.843 824.261 107.853 821.101 106.891 817.93L119.332 814.156C118.393 811.061 117.481 807.954 116.596 804.836L104.09 808.385C103.184 805.194 102.306 801.991 101.456 798.778L114.024 795.453C113.198 792.332 112.399 789.2 111.628 786.058L99.003 789.157C98.2133 785.939 97.4516 782.711 96.7182 779.473L109.397 776.601C108.682 773.443 107.994 770.275 107.334 767.097L94.6058 769.74C93.9337 766.503 93.2898 763.257 92.6743 760.001L105.448 757.586C104.847 754.407 104.274 751.218 103.728 748.019L90.9132 750.205C90.3562 746.938 89.8276 743.661 89.3279 740.376L102.18 738.421C101.695 735.23 101.237 732.031 100.808 728.822L87.9225 730.547C87.4827 727.262 87.0716 723.969 86.6895 720.667L99.6033 719.172C99.2315 715.959 98.8877 712.737 98.5723 709.508L85.6338 710.771C85.3127 707.483 85.0202 704.186 84.7566 700.882L97.7155 699.848C97.4581 696.62 97.2289 693.385 97.0283 690.142L84.0531 690.945C83.8486 687.641 83.6731 684.33 83.5267 681.011L96.5141 680.438C96.3719 677.214 96.2578 673.983 96.1722 670.745L83.1767 671.089C83.089 667.775 83.0304 664.453 83.001 661.125L96.0005 661.011C95.9862 659.385 95.979 657.757 95.979 656.128C95.979 654.499 95.9862 652.872 96.0005 651.246L83.001 651.132C83.0304 647.804 83.089 644.482 83.1767 641.168L96.1722 641.512C96.2578 638.274 96.3719 635.043 96.5141 631.819L83.5267 631.246C83.6731 627.928 83.8486 624.616 84.053 621.312L97.0282 622.115C97.2289 618.872 97.458 615.637 97.7154 612.409L84.7566 611.376C85.0201 608.071 85.3126 604.774 85.6338 601.486L98.5722 602.75C98.8876 599.52 99.2314 596.298 99.6032 593.085L86.6894 591.591C87.0715 588.288 87.4826 584.995 87.9224 581.71L100.807 583.435C101.237 580.227 101.695 577.027 102.18 573.836L89.3278 571.881C89.8275 568.596 90.3561 565.319 90.9131 562.053L103.728 564.238C104.274 561.039 104.847 557.85 105.448 554.671L92.6742 552.256C93.2897 549 93.9336 545.754 94.6057 542.517L107.334 545.16C107.994 541.982 108.682 538.814 109.397 535.656L96.7181 532.784C97.4515 529.546 98.2132 526.318 99.0029 523.1L111.628 526.199C112.399 523.057 113.198 519.925 114.024 516.804L101.456 513.479C102.306 510.266 103.184 507.063 104.09 503.872L116.596 507.421C117.481 504.303 118.393 501.196 119.332 498.1L106.891 494.327C107.853 491.156 108.843 487.996 109.859 484.848L122.23 488.843C123.227 485.755 124.252 482.678 125.302 479.614L113.005 475.397C114.081 472.259 115.184 469.133 116.314 466.019L128.534 470.455C129.639 467.411 130.77 464.379 131.928 461.359L119.789 456.706C120.977 453.606 122.192 450.518 123.434 447.443L135.488 452.311C136.701 449.307 137.94 446.317 139.205 443.338L127.24 438.257C128.536 435.204 129.859 432.164 131.209 429.138L143.082 434.432C144.402 431.471 145.748 428.523 147.119 425.589L135.341 420.085C136.745 417.081 138.175 414.091 139.63 411.115L151.309 416.826C152.732 413.915 154.181 411.017 155.655 408.134L144.079 402.217C145.589 399.263 147.124 396.323 148.685 393.398L160.155 399.518C161.679 396.66 163.229 393.817 164.803 390.988L153.443 384.668C155.055 381.769 156.693 378.885 158.356 376.016L169.603 382.535C171.228 379.731 172.878 376.942 174.551 374.168L163.419 367.453C165.132 364.615 166.868 361.791 168.629 358.984L179.642 365.892C181.365 363.146 183.111 360.416 184.88 357.701L173.99 350.602C175.801 347.824 177.636 345.062 179.494 342.317L190.259 349.604C192.076 346.921 193.915 344.253 195.778 341.602L185.141 334.129C187.047 331.416 188.977 328.719 190.929 326.039L201.436 333.695C203.344 331.076 205.276 328.474 207.229 325.888L196.857 318.051C198.856 315.406 200.877 312.777 202.921 310.167L213.157 318.181C215.155 315.629 217.175 313.095 219.217 310.577L209.12 302.388C211.209 299.813 213.32 297.255 215.453 294.716L225.407 303.077C227.492 300.596 229.598 298.132 231.725 295.685L221.915 287.155C224.09 284.653 226.287 282.17 228.506 279.706L238.168 288.403C240.337 285.993 242.527 283.601 244.737 281.228L235.225 272.368C237.484 269.942 239.764 267.536 242.065 265.149L251.425 274.17C253.674 271.836 255.944 269.521 258.233 267.225L249.028 258.046C251.37 255.697 253.732 253.368 256.114 251.059L265.163 260.393C267.489 258.138 269.835 255.902 272.2 253.685L263.311 244.199C265.73 241.933 268.169 239.686 270.627 237.459L279.354 247.094C281.758 244.917 284.18 242.76 286.622 240.623L278.059 230.841C280.551 228.659 283.063 226.497 285.594 224.356L293.991 234.28C296.466 232.186 298.96 230.112 301.472 228.058L293.243 217.994C295.81 215.896 298.395 213.818 300.998 211.761L309.056 221.963C311.599 219.955 314.159 217.967 316.737 216L308.852 205.665C311.488 203.653 314.142 201.664 316.813 199.695L324.524 210.161C327.134 208.239 329.761 206.337 332.405 204.457L324.871 193.863C327.57 191.943 330.287 190.045 333.022 188.168L340.377 198.887C343.052 197.052 345.743 195.238 348.451 193.446L341.275 182.605C344.038 180.777 346.817 178.971 349.612 177.187L356.605 188.146C359.337 186.403 362.085 184.682 364.849 182.983L358.04 171.908C360.865 170.171 363.707 168.456 366.565 166.765L373.188 177.951C375.974 176.301 378.777 174.674 381.594 173.069L375.159 161.773C378.038 160.133 380.932 158.516 383.842 156.922L390.088 168.323C392.934 166.764 395.795 165.227 398.671 163.714L392.617 152.21C395.545 150.669 398.488 149.151 401.445 147.656L407.308 159.259C410.201 157.798 413.108 156.359 416.03 154.943L410.361 143.244C413.346 141.798 416.345 140.376 419.359 138.977L424.832 150.769C427.767 149.407 430.717 148.067 433.68 146.752L428.404 134.87C431.432 133.525 434.475 132.204 437.531 130.908L442.609 142.875C445.595 141.608 448.593 140.365 451.605 139.146L446.727 127.096C449.794 125.854 452.873 124.637 455.966 123.444L460.644 135.574C463.669 134.407 466.707 133.264 469.757 132.146L465.282 119.94C468.393 118.799 471.517 117.683 474.653 116.592L478.926 128.869C481.983 127.806 485.051 126.766 488.132 125.751L484.063 113.404C487.211 112.367 490.372 111.354 493.544 110.367L497.407 122.779C500.502 121.816 503.608 120.878 506.725 119.964L503.067 107.489C506.241 106.558 509.427 105.652 512.624 104.772L516.075 117.306C519.202 116.444 522.341 115.608 525.49 114.797L522.246 102.208C525.453 101.382 528.67 100.581 531.897 99.8057L534.933 112.446C538.08 111.691 541.237 110.96 544.404 110.254L541.577 97.5652C544.813 96.844 548.06 96.1485 551.317 95.479L553.935 108.213C557.107 107.56 560.289 106.933 563.481 106.332L561.072 93.5568C564.322 92.944 567.581 92.357 570.85 91.796L573.049 104.609C576.248 104.06 579.456 103.536 582.672 103.038L580.684 90.1912C583.953 89.6851 587.232 89.2049 590.519 88.7509L592.298 101.629C595.503 101.186 598.717 100.769 601.94 100.377L600.371 87.4718C603.664 87.0716 606.964 86.6976 610.273 86.3499L611.632 99.2788C614.852 98.9405 618.08 98.6278 621.315 98.3409L620.167 85.3917C623.46 85.0997 626.76 84.8338 630.068 84.5942L631.007 97.5603C634.245 97.3258 637.49 97.1171 640.743 96.9343L640.014 83.9548C643.317 83.7693 646.627 83.6099 649.944 83.4771L650.464 96.4666C653.696 96.3372 656.935 96.2333 660.181 96.1553L659.869 83.1591C663.184 83.0794 666.506 83.0262 669.834 82.9995L669.938 95.9991C671.568 95.986 673.199 95.9795 674.832 95.9795C676.464 95.9795 678.095 95.986 679.725 95.9991L679.829 82.9995C683.157 83.0261 686.479 83.0794 689.794 83.1591L689.482 96.1553C692.728 96.2333 695.967 96.3371 699.199 96.4666L699.719 83.477C703.036 83.6099 706.346 83.7692 709.649 83.9548L708.92 96.9343C712.173 97.117 715.418 97.3258 718.656 97.5602L719.595 84.5942C722.903 84.8337 726.204 85.0996 729.496 85.3916L728.348 98.3408C731.583 98.6278 734.811 98.9405 738.031 99.2787L739.39 86.3499C742.699 86.6975 746 87.0715 749.292 87.4718L747.723 100.377C750.946 100.768 754.16 101.186 757.365 101.629L759.144 88.7508C762.431 89.2048 765.71 89.685 768.98 90.1911L766.991 103.038C770.208 103.536 773.416 104.06 776.614 104.609L778.813 91.796C782.082 92.3569 785.341 92.9439 788.591 93.5567L786.183 106.332C789.374 106.933 792.556 107.56 795.728 108.213L798.346 95.4788C801.603 96.1484 804.85 96.8439 808.087 97.5651L805.259 110.254C808.426 110.96 811.583 111.69 814.73 112.446L817.766 99.8056C820.994 100.581 824.211 101.381 827.417 102.208L824.173 114.796C827.322 115.608 830.461 116.444 833.589 117.306L837.04 104.772C840.236 105.652 843.422 106.558 846.596 107.489L842.939 119.963C846.056 120.877 849.161 121.816 852.256 122.779L856.12 110.367C859.292 111.354 862.452 112.367 865.601 113.404L861.532 125.751C864.612 126.766 867.681 127.806 870.738 128.869L875.01 116.592C878.146 117.683 881.27 118.799 884.382 119.94L879.906 132.145C882.956 133.264 885.994 134.407 889.02 135.573L893.697 123.444C896.79 124.637 899.87 125.854 902.936 127.095L898.058 139.145C901.07 140.365 904.069 141.608 907.055 142.875L912.133 130.908C915.189 132.204 918.231 133.525 921.26 134.87L915.984 146.751C918.947 148.067 921.896 149.406 924.832 150.769L930.305 138.977C933.318 140.376 936.317 141.798 939.302 143.244L933.634 154.943C936.555 156.359 939.463 157.798 942.356 159.259L948.218 147.656C951.176 149.151 954.119 150.668 957.047 152.209L950.992 163.713C953.868 165.227 956.729 166.764 959.576 168.323L965.821 156.922C968.731 158.516 971.625 160.133 974.504 161.773L968.069 173.068C970.887 174.674 973.689 176.301 976.476 177.951L983.099 166.764C985.956 168.456 988.798 170.171 991.623 171.908L984.815 182.982C987.579 184.682 990.327 186.403 993.058 188.146L1000.05 177.187C1002.85 178.971 1005.63 180.777 1008.39 182.605L1001.21 193.446C1003.92 195.238 1006.61 197.052 1009.29 198.887L1016.64 188.168C1019.38 190.045 1022.09 191.943 1024.79 193.863L1017.26 204.457C1019.9 206.337 1022.53 208.239 1025.14 210.161L1032.85 199.695C1035.52 201.663 1038.18 203.653 1040.81 205.664L1032.93 216C1035.5 217.967 1038.06 219.954 1040.61 221.963L1048.67 211.761C1051.27 213.818 1053.85 215.895 1056.42 217.994L1048.19 228.058C1050.7 230.112 1053.2 232.186 1055.67 234.28L1064.07 224.356C1066.6 226.497 1069.11 228.659 1071.6 230.841L1063.04 240.622C1065.48 242.76 1067.91 244.917 1070.31 247.094L1079.04 237.459C1081.49 239.686 1083.93 241.932 1086.35 244.199L1077.46 253.685C1079.83 255.902 1082.17 258.138 1084.5 260.393L1093.55 251.058C1095.93 253.368 1098.29 255.697 1100.64 258.045L1091.43 267.225C1093.72 269.521 1095.99 271.836 1098.24 274.17L1107.6 265.148C1109.9 267.536 1112.18 269.942 1114.44 272.367L1104.93 281.228C1107.14 283.601 1109.33 285.993 1111.5 288.402L1121.16 279.705C1123.38 282.17 1125.57 284.653 1127.75 287.155L1117.94 295.685C1120.07 298.131 1122.17 300.595 1124.26 303.077L1134.21 294.716C1136.34 297.255 1138.45 299.813 1140.54 302.388L1130.45 310.577C1132.49 313.094 1134.51 315.629 1136.51 318.181L1146.74 310.166C1148.79 312.777 1150.81 315.405 1152.81 318.051L1142.43 325.887C1144.39 328.473 1146.32 331.076 1148.23 333.695L1158.73 326.039C1160.69 328.719 1162.62 331.415 1164.52 334.129L1153.89 341.602C1155.75 344.253 1157.59 346.92 1159.4 349.604L1170.17 342.316C1172.03 345.062 1173.86 347.824 1175.67 350.602L1164.78 357.701C1166.55 360.416 1168.3 363.146 1170.02 365.892L1181.03 358.984C1182.8 361.791 1184.53 364.614 1186.24 367.453L1175.11 374.168C1176.79 376.942 1178.44 379.731 1180.06 382.534L1191.31 376.016C1192.97 378.884 1194.61 381.768 1196.22 384.667L1184.86 390.988C1186.43 393.817 1187.98 396.66 1189.51 399.518L1200.98 393.398C1202.54 396.323 1204.07 399.263 1205.58 402.217L1194.01 408.133C1195.48 411.017 1196.93 413.914 1198.36 416.826L1210.03 411.115C1211.49 414.091 1212.92 417.081 1214.32 420.085L1202.54 425.588C1203.92 428.523 1205.26 431.47 1206.58 434.431L1218.46 429.138C1219.8 432.164 1221.13 435.203 1222.42 438.256L1210.46 443.338C1211.72 446.316 1212.96 449.307 1214.18 452.311L1226.23 447.442C1227.47 450.517 1228.69 453.605 1229.88 456.706L1217.74 461.359C1218.89 464.378 1220.02 467.41 1221.13 470.454L1233.35 466.019C1234.48 469.133 1235.58 472.259 1236.66 475.397L1224.36 479.613C1225.41 482.678 1226.44 485.754 1227.43 488.842L1239.8 484.847C1240.82 487.995 1241.81 491.155 1242.77 494.327L1230.33 498.1C1231.27 501.196 1232.18 504.303 1233.07 507.421L1245.57 503.871C1246.48 507.063 1247.36 510.265 1248.21 513.479L1235.64 516.803C1236.47 519.924 1237.26 523.056 1238.04 526.198L1250.66 523.1C1251.45 526.317 1252.21 529.546 1252.95 532.784L1240.27 535.655C1240.98 538.814 1241.67 541.982 1242.33 545.16L1255.06 542.517C1255.73 545.753 1256.37 548.999 1256.99 552.255L1244.22 554.67C1244.82 557.85 1245.39 561.039 1245.94 564.237L1258.75 562.052C1259.31 565.319 1259.84 568.595 1260.34 571.88L1247.48 573.835C1247.97 577.026 1248.43 580.226 1248.86 583.434L1261.74 581.709C1262.18 584.994 1262.59 588.288 1262.97 591.59L1250.06 593.084C1250.43 596.298 1250.78 599.519 1251.09 602.749L1264.03 601.485C1264.35 604.774 1264.64 608.07 1264.91 611.375L1251.95 612.408C1252.21 615.636 1252.43 618.872 1252.64 622.115L1265.61 621.312C1265.82 624.616 1265.99 627.927 1266.14 631.246L1253.15 631.818C1253.29 635.042 1253.41 638.273 1253.49 641.511L1266.49 641.167Z" stroke="#00FFE0" stroke-opacity="0.7" stroke-width="26" stroke-dasharray="10 10"/>
<path d="M646.808 28.364C646.808 26.18 647.036 24.272 647.492 22.64C647.948 20.984 648.584 19.616 649.4 18.536C650.24 17.456 651.236 16.652 652.388 16.124C653.54 15.572 654.824 15.296 656.24 15.296C659.264 15.296 661.592 16.364 663.224 18.5C664.856 20.612 665.672 23.9 665.672 28.364C665.672 30.572 665.444 32.504 664.988 34.16C664.532 35.792 663.884 37.16 663.044 38.264C662.228 39.344 661.232 40.16 660.056 40.712C658.904 41.24 657.62 41.504 656.204 41.504C653.156 41.504 650.828 40.388 649.22 38.156C647.612 35.9 646.808 32.636 646.808 28.364ZM661.064 28.364C661.064 27.98 661.052 27.62 661.028 27.284C661.028 26.924 661.016 26.576 660.992 26.24L652.172 34.268C652.916 36.452 654.272 37.544 656.24 37.544C657.776 37.544 658.964 36.812 659.804 35.348C660.644 33.884 661.064 31.556 661.064 28.364ZM651.416 28.364C651.416 28.724 651.416 29.072 651.416 29.408C651.44 29.72 651.464 30.044 651.488 30.38L660.272 22.352C659.552 20.288 658.196 19.256 656.204 19.256C654.668 19.256 653.48 20 652.64 21.488C651.824 22.952 651.416 25.244 651.416 28.364ZM674.91 38.624C674.91 37.784 675.174 37.124 675.702 36.644C676.23 36.14 676.926 35.888 677.79 35.888C678.702 35.888 679.422 36.14 679.95 36.644C680.478 37.124 680.742 37.784 680.742 38.624C680.742 39.464 680.478 40.136 679.95 40.64C679.422 41.144 678.702 41.396 677.79 41.396C676.926 41.396 676.23 41.144 675.702 40.64C675.174 40.136 674.91 39.464 674.91 38.624ZM707.44 41H691.384V37.508C691.672 37.268 692.032 36.956 692.464 36.572C692.896 36.164 693.376 35.708 693.904 35.204C694.456 34.7 695.032 34.148 695.632 33.548C696.232 32.948 696.82 32.324 697.396 31.676C698.212 30.764 698.92 29.936 699.52 29.192C700.144 28.448 700.648 27.752 701.032 27.104C701.44 26.432 701.74 25.784 701.932 25.16C702.124 24.512 702.22 23.852 702.22 23.18C702.22 22.7 702.112 22.232 701.896 21.776C701.68 21.32 701.38 20.924 700.996 20.588C700.612 20.228 700.144 19.952 699.592 19.76C699.064 19.544 698.476 19.436 697.828 19.436C696.964 19.436 696.172 19.568 695.452 19.832C694.756 20.096 694.024 20.54 693.256 21.164L691.384 17.852C692.392 17.132 693.508 16.532 694.732 16.052C695.98 15.548 697.408 15.296 699.016 15.296C700.048 15.296 701.032 15.44 701.968 15.728C702.928 16.016 703.768 16.448 704.488 17.024C705.232 17.576 705.82 18.272 706.252 19.112C706.684 19.952 706.9 20.924 706.9 22.028C706.9 22.796 706.828 23.516 706.684 24.188C706.564 24.836 706.36 25.496 706.072 26.168C705.808 26.816 705.448 27.488 704.992 28.184C704.56 28.88 704.032 29.636 703.408 30.452C702.928 31.076 702.4 31.712 701.824 32.36C701.272 32.984 700.72 33.584 700.168 34.16C699.616 34.736 699.064 35.276 698.512 35.78C697.984 36.284 697.504 36.704 697.072 37.04H707.44V41Z" fill="#45F7E2"/>
<path d="M712.625 1280.4C712.625 1279.23 712.853 1278.14 713.309 1277.13C713.741 1276.12 714.341 1275.24 715.109 1274.5C715.877 1273.76 716.801 1273.17 717.881 1272.74C718.937 1272.3 720.077 1272.09 721.301 1272.09C722.549 1272.09 723.725 1272.28 724.829 1272.66C725.909 1273.07 726.857 1273.67 727.673 1274.46C728.489 1275.26 729.137 1276.25 729.617 1277.45C730.097 1278.65 730.337 1280.04 730.337 1281.63C730.337 1284 729.929 1286.16 729.113 1288.11C728.273 1290.05 727.205 1291.73 725.909 1293.15C724.613 1294.59 723.161 1295.74 721.553 1296.6C719.945 1297.49 718.349 1298.06 716.765 1298.3L715.721 1294.59C716.993 1294.35 718.181 1293.95 719.285 1293.4C720.389 1292.87 721.373 1292.22 722.237 1291.46C723.101 1290.69 723.833 1289.84 724.433 1288.9C725.009 1287.96 725.405 1286.99 725.621 1285.98C725.141 1286.58 724.421 1287.09 723.461 1287.5C722.501 1287.93 721.445 1288.14 720.293 1288.14C719.213 1288.14 718.205 1287.96 717.269 1287.6C716.333 1287.27 715.529 1286.76 714.857 1286.09C714.161 1285.44 713.621 1284.64 713.237 1283.68C712.829 1282.72 712.625 1281.63 712.625 1280.4ZM717.161 1280.22C717.161 1281.52 717.557 1282.5 718.349 1283.18C719.117 1283.85 720.161 1284.18 721.481 1284.18C722.441 1284.18 723.305 1283.97 724.073 1283.54C724.841 1283.1 725.405 1282.6 725.765 1282.02C725.813 1281.76 725.849 1281.46 725.873 1281.12C725.873 1280.81 725.873 1280.56 725.873 1280.37C725.873 1279.79 725.777 1279.24 725.585 1278.71C725.393 1278.18 725.117 1277.72 724.757 1277.31C724.373 1276.92 723.917 1276.61 723.389 1276.37C722.861 1276.16 722.249 1276.05 721.553 1276.05C721.001 1276.05 720.461 1276.14 719.933 1276.34C719.405 1276.55 718.937 1276.84 718.529 1277.2C718.121 1277.56 717.797 1277.99 717.557 1278.5C717.293 1279.02 717.161 1279.6 717.161 1280.22ZM702.811 1274.97C702.811 1275.81 702.547 1276.47 702.019 1276.95C701.491 1277.45 700.795 1277.7 699.931 1277.7C699.019 1277.7 698.299 1277.45 697.771 1276.95C697.243 1276.47 696.979 1275.81 696.979 1274.97C696.979 1274.13 697.243 1273.46 697.771 1272.95C698.299 1272.45 699.019 1272.2 699.931 1272.2C700.795 1272.2 701.491 1272.45 702.019 1272.95C702.547 1273.46 702.811 1274.13 702.811 1274.97ZM680.181 1276.05C679.389 1276.05 678.669 1276.14 678.021 1276.34C677.349 1276.55 676.785 1276.84 676.329 1277.2C675.849 1277.58 675.477 1278.02 675.213 1278.5C674.949 1279 674.817 1279.54 674.817 1280.12C674.817 1280.84 674.973 1281.44 675.285 1281.92C675.573 1282.42 675.981 1282.82 676.509 1283.1C677.037 1283.39 677.673 1283.6 678.417 1283.72C679.161 1283.84 679.965 1283.9 680.829 1283.9H682.845V1286.45L676.797 1293.83H685.905V1297.79H671.217V1294.52L677.553 1287.28H676.725C675.885 1287.28 675.069 1287.14 674.277 1286.85C673.485 1286.56 672.789 1286.13 672.189 1285.55C671.565 1284.98 671.073 1284.26 670.713 1283.39C670.329 1282.53 670.137 1281.53 670.137 1280.4C670.137 1279.04 670.425 1277.84 671.001 1276.8C671.553 1275.77 672.297 1274.9 673.233 1274.18C674.145 1273.48 675.201 1272.95 676.401 1272.59C677.601 1272.26 678.837 1272.09 680.109 1272.09C681.189 1272.09 682.269 1272.18 683.349 1272.38C684.429 1272.57 685.473 1272.87 686.481 1273.28L685.221 1277.16C685.005 1277.04 684.717 1276.92 684.357 1276.8C683.973 1276.68 683.553 1276.56 683.097 1276.44C682.617 1276.32 682.137 1276.23 681.657 1276.16C681.153 1276.08 680.661 1276.05 680.181 1276.05Z" fill="#4FF6E2"/>
<path d="M1313.64 653.97C1313.64 654.762 1313.73 655.494 1313.92 656.166C1314.12 656.838 1314.39 657.414 1314.75 657.894C1315.11 658.398 1315.56 658.782 1316.08 659.046C1316.61 659.334 1317.21 659.478 1317.88 659.478C1319.2 659.478 1320.24 658.95 1320.98 657.894C1321.75 656.862 1322.13 655.302 1322.13 653.214C1322.13 652.95 1322.12 652.638 1322.1 652.278C1322.1 651.942 1322.08 651.618 1322.06 651.306C1322.04 650.946 1322.02 650.574 1322.02 650.19H1335.2V663.222H1330.88V654.222H1325.95C1325.95 654.414 1325.96 654.606 1325.98 654.798C1325.98 654.966 1325.98 655.122 1325.98 655.266C1326.01 655.434 1326.02 655.578 1326.02 655.698C1326.02 656.898 1325.84 658.014 1325.48 659.046C1325.14 660.078 1324.63 660.978 1323.93 661.746C1323.24 662.514 1322.38 663.102 1321.38 663.51C1320.39 663.942 1319.3 664.158 1318.1 664.158C1316.68 664.158 1315.44 663.894 1314.36 663.366C1313.3 662.838 1312.41 662.118 1311.69 661.206C1310.97 660.294 1310.42 659.238 1310.04 658.038C1309.68 656.838 1309.5 655.554 1309.5 654.186C1309.5 653.658 1309.56 653.094 1309.68 652.494C1309.77 651.894 1309.89 651.306 1310.04 650.73C1310.2 650.154 1310.38 649.614 1310.58 649.11C1310.77 648.63 1310.95 648.222 1311.12 647.886L1314.86 649.398C1314.62 649.806 1314.36 650.43 1314.07 651.27C1313.78 652.134 1313.64 653.034 1313.64 653.97Z" fill="#45F7E2"/>
<path d="M34.844 672.672C34.004 672.672 33.236 672.54 32.54 672.276C31.844 671.988 31.22 671.628 30.668 671.196C30.116 670.74 29.624 670.224 29.192 669.648C28.736 669.072 28.34 668.484 28.004 667.884C27.308 669.084 26.492 670.08 25.556 670.872C24.596 671.664 23.396 672.06 21.956 672.06C21.02 672.06 20.144 671.856 19.328 671.448C18.512 671.04 17.804 670.476 17.204 669.756C16.604 669.012 16.136 668.136 15.8 667.128C15.464 666.12 15.296 665.028 15.296 663.852C15.296 662.772 15.44 661.764 15.728 660.828C16.016 659.868 16.424 659.028 16.952 658.308C17.48 657.588 18.128 657.024 18.896 656.616C19.64 656.208 20.468 656.004 21.38 656.004C22.796 656.004 24.032 656.376 25.088 657.12C26.144 657.84 27.056 658.836 27.824 660.108C28.568 658.668 29.444 657.528 30.452 656.688C31.46 655.824 32.756 655.392 34.34 655.392C35.42 655.392 36.404 655.632 37.292 656.112C38.156 656.568 38.9 657.192 39.524 657.984C40.148 658.776 40.64 659.712 41 660.792C41.336 661.848 41.504 662.976 41.504 664.176C41.504 665.376 41.336 666.492 41 667.524C40.688 668.556 40.244 669.456 39.668 670.224C39.092 670.992 38.396 671.592 37.58 672.024C36.764 672.456 35.852 672.672 34.844 672.672ZM34.232 659.856C33.632 659.856 33.116 660.012 32.684 660.324C32.252 660.636 31.868 661.032 31.532 661.512C31.196 661.968 30.896 662.484 30.632 663.06C30.344 663.612 30.056 664.152 29.768 664.68C30.296 665.88 30.98 666.804 31.82 667.452C32.636 668.1 33.416 668.424 34.16 668.424C35.24 668.424 36.08 668.04 36.68 667.272C37.256 666.504 37.544 665.436 37.544 664.068C37.544 662.844 37.268 661.836 36.716 661.044C36.14 660.252 35.312 659.856 34.232 659.856ZM22.172 667.596C22.748 667.596 23.24 667.476 23.648 667.236C24.032 666.972 24.38 666.648 24.692 666.264C24.98 665.856 25.244 665.4 25.484 664.896C25.724 664.392 25.964 663.888 26.204 663.384C26.012 663 25.772 662.628 25.484 662.268C25.196 661.884 24.884 661.548 24.548 661.26C24.188 660.972 23.828 660.744 23.468 660.576C23.084 660.384 22.7 660.288 22.316 660.288C21.812 660.288 21.38 660.396 21.02 660.612C20.636 660.828 20.312 661.116 20.048 661.476C19.784 661.812 19.592 662.196 19.472 662.628C19.328 663.06 19.256 663.504 19.256 663.96C19.256 664.488 19.34 664.98 19.508 665.436C19.676 665.868 19.892 666.252 20.156 666.588C20.42 666.9 20.732 667.152 21.092 667.344C21.452 667.512 21.812 667.596 22.172 667.596ZM38.624 651.302C37.784 651.302 37.124 651.038 36.644 650.51C36.14 649.982 35.888 649.286 35.888 648.422C35.888 647.51 36.14 646.79 36.644 646.262C37.124 645.734 37.784 645.47 38.624 645.47C39.464 645.47 40.136 645.734 40.64 646.262C41.144 646.79 41.396 647.51 41.396 648.422C41.396 649.286 41.144 649.982 40.64 650.51C40.136 651.038 39.464 651.302 38.624 651.302ZM37.544 634.612C37.544 633.82 37.448 633.1 37.256 632.452C37.04 631.78 36.752 631.216 36.392 630.76C36.008 630.28 35.576 629.908 35.096 629.644C34.592 629.38 34.052 629.248 33.476 629.248C32.756 629.248 32.156 629.404 31.676 629.716C31.172 630.004 30.776 630.412 30.488 630.94C30.2 631.468 29.996 632.104 29.876 632.848C29.756 633.592 29.696 634.396 29.696 635.26V637.276H27.14L19.76 631.228V640.336H15.8L15.8 625.648H19.076L26.312 631.984V631.156C26.312 630.316 26.456 629.5 26.744 628.708C27.032 627.916 27.464 627.22 28.04 626.62C28.616 625.996 29.336 625.504 30.2 625.144C31.064 624.76 32.06 624.568 33.188 624.568C34.556 624.568 35.756 624.856 36.788 625.432C37.82 625.984 38.696 626.728 39.416 627.664C40.112 628.576 40.64 629.632 41 630.832C41.336 632.032 41.504 633.268 41.504 634.54C41.504 635.62 41.408 636.7 41.216 637.78C41.024 638.86 40.724 639.904 40.316 640.912L36.428 639.652C36.548 639.436 36.668 639.148 36.788 638.788C36.908 638.404 37.028 637.984 37.148 637.528C37.268 637.048 37.364 636.568 37.436 636.088C37.508 635.584 37.544 635.092 37.544 634.612Z" fill="#45F7E2"/>
</svg>
