<svg width="989" height="961" viewBox="0 0 989 961" fill="none" xmlns="http://www.w3.org/2000/svg">
<path d="M936.729 464.866C936.849 468.215 936.93 471.573 936.97 474.941L923.971 475.096C923.99 476.729 924 478.363 924 480C924 481.637 923.99 483.271 923.971 484.903L936.97 485.058C936.93 488.426 936.849 491.785 936.729 495.134L923.738 494.668C923.621 497.924 923.466 501.171 923.273 504.407L936.249 505.183C936.048 508.546 935.807 511.9 935.527 515.242L922.572 514.155C922.3 517.398 921.989 520.63 921.641 523.851L934.565 525.25C934.202 528.601 933.8 531.941 933.358 535.268L920.471 533.557C920.043 536.781 919.576 539.993 919.072 543.193L931.914 545.215C931.39 548.545 930.826 551.861 930.223 555.165L917.434 552.831C916.85 556.032 916.228 559.22 915.569 562.395L928.297 565.038C927.613 568.334 926.889 571.617 926.127 574.886L913.467 571.935C912.728 575.104 911.951 578.26 911.138 581.401L923.723 584.659C922.88 587.916 921.998 591.159 921.079 594.385L908.577 590.823C907.684 593.953 906.755 597.069 905.79 600.17L918.202 604.034C917.203 607.245 916.165 610.439 915.091 613.617L902.776 609.453C901.733 612.537 900.654 615.605 899.539 618.657L911.749 623.118C910.596 626.275 909.406 629.415 908.179 632.537L896.079 627.783C894.889 630.813 893.662 633.827 892.401 636.823L904.382 641.867C903.079 644.964 901.739 648.042 900.363 651.102L888.506 645.771C887.171 648.741 885.801 651.693 884.396 654.626L896.122 660.24C894.671 663.27 893.185 666.28 891.665 669.271L880.077 663.378C878.601 666.281 877.091 669.165 875.547 672.029L886.991 678.196C885.398 681.152 883.771 684.089 882.109 687.004L870.815 680.567C869.202 683.396 867.556 686.205 865.878 688.994L877.017 695.697C875.285 698.574 873.52 701.43 871.722 704.264L860.745 697.3C859 700.049 857.224 702.778 855.415 705.485L866.225 712.707C864.36 715.499 862.462 718.268 860.532 721.015L849.895 713.542C848.023 716.207 846.12 718.849 844.186 721.469L854.645 729.19C852.651 731.891 850.626 734.569 848.569 737.224L838.293 729.261C836.298 731.836 834.274 734.387 832.219 736.914L842.308 745.113C840.19 747.719 838.042 750.301 835.863 752.857L825.968 744.426C823.856 746.904 821.715 749.359 819.546 751.789L829.243 760.447C827.007 762.951 824.741 765.431 822.447 767.884L812.952 759.005C810.728 761.383 808.476 763.736 806.196 766.064L815.484 775.16C813.134 777.558 810.757 779.931 808.352 782.277L799.275 772.97C796.944 775.243 794.586 777.491 792.201 779.712L801.062 789.224C798.605 791.513 796.122 793.774 793.611 796.007L784.97 786.294C782.538 788.458 780.079 790.596 777.595 792.706L786.011 802.614C783.453 804.787 780.869 806.932 778.259 809.049L770.07 798.952C767.541 801.003 764.987 803.027 762.409 805.022L770.365 815.303C767.711 817.357 765.032 819.383 762.328 821.379L754.607 810.92C751.987 812.854 749.344 814.76 746.677 816.637L754.159 827.268C751.414 829.199 748.646 831.101 745.855 832.972L738.616 822.174C735.911 823.988 733.183 825.772 730.433 827.527L737.426 838.486C734.598 840.291 731.747 842.065 728.874 843.808L722.131 832.693C719.346 834.383 716.539 836.043 713.712 837.672L720.202 848.936C717.296 850.61 714.369 852.253 711.421 853.865L705.186 842.457C702.327 844.02 699.448 845.552 696.548 847.052L702.524 858.598C699.547 860.139 696.549 861.648 693.531 863.124L687.817 851.448C684.89 852.88 681.943 854.281 678.978 855.651L684.428 867.453C681.385 868.858 678.324 870.23 675.243 871.569L670.06 859.647C667.07 860.947 664.062 862.215 661.037 863.45L665.95 875.486C662.849 876.751 659.73 877.984 656.594 879.183L651.952 867.04C648.907 868.204 645.844 869.336 642.765 870.434L647.133 882.679C643.979 883.804 640.809 884.895 637.622 885.952L633.529 873.613C630.435 874.639 627.326 875.632 624.201 876.592L628.016 889.019C624.814 890.002 621.597 890.951 618.364 891.865L614.827 879.355C611.693 880.241 608.543 881.094 605.379 881.912L608.635 894.498C605.391 895.337 602.133 896.142 598.86 896.911L595.886 884.256C592.716 885.001 589.533 885.711 586.337 886.388L589.029 899.106C585.749 899.801 582.456 900.46 579.149 901.083L576.74 888.308C573.544 888.911 570.334 889.479 567.112 890.013L569.237 902.838C565.927 903.387 562.604 903.899 559.269 904.376L557.429 891.507C554.212 891.967 550.983 892.393 547.742 892.784L549.299 905.69C545.964 906.092 542.617 906.459 539.259 906.789L537.988 893.851C534.757 894.168 531.516 894.451 528.264 894.699L529.253 907.661C525.906 907.917 522.55 908.136 519.183 908.318L518.478 895.338C515.233 895.514 511.978 895.655 508.714 895.761L509.136 908.754C505.787 908.863 502.427 908.936 499.059 908.973L498.918 895.973C497.281 895.991 495.642 896 494 896C492.358 896 490.719 895.991 489.082 895.973L488.941 908.973C485.573 908.936 482.214 908.863 478.864 908.754L479.286 895.761C476.022 895.655 472.767 895.514 469.522 895.338L468.817 908.318C465.451 908.136 462.094 907.917 458.748 907.662L459.736 894.699C456.484 894.451 453.243 894.168 450.012 893.851L448.741 906.789C445.383 906.459 442.037 906.092 438.702 905.69L440.258 892.784C437.018 892.393 433.789 891.967 430.571 891.507L428.731 904.376C425.396 903.899 422.073 903.387 418.763 902.838L420.888 890.013C417.666 889.479 414.457 888.911 411.26 888.308L408.851 901.083C405.545 900.46 402.251 899.801 398.971 899.106L401.663 886.388C398.467 885.712 395.284 885.001 392.115 884.256L389.14 896.911C385.867 896.142 382.609 895.337 379.365 894.498L382.621 881.912C379.457 881.094 376.307 880.241 373.173 879.355L369.636 891.865C366.403 890.951 363.186 890.002 359.984 889.019L363.799 876.592C360.674 875.632 357.565 874.639 354.472 873.613L350.379 885.952C347.192 884.895 344.021 883.804 340.867 882.679L345.235 870.434C342.156 869.336 339.094 868.204 336.048 867.04L331.406 879.183C328.27 877.984 325.151 876.752 322.05 875.486L326.964 863.45C323.938 862.215 320.93 860.947 317.94 859.647L312.757 871.569C309.677 870.23 306.615 868.858 303.573 867.453L309.022 855.651C306.057 854.281 303.11 852.88 300.183 851.448L294.469 863.125C291.451 861.648 288.454 860.139 285.476 858.598L291.452 847.052C288.553 845.552 285.673 844.02 282.814 842.457L276.58 853.865C273.631 852.253 270.704 850.61 267.798 848.936L274.288 837.672C271.461 836.043 268.654 834.383 265.869 832.693L259.126 843.808C256.253 842.065 253.403 840.291 250.574 838.486L257.567 827.527C254.817 825.772 252.089 823.988 249.384 822.174L242.145 832.972C239.354 831.101 236.586 829.199 233.842 827.268L241.323 816.637C238.657 814.76 236.013 812.854 233.393 810.92L225.672 821.379C222.968 819.383 220.289 817.357 217.635 815.303L225.592 805.023C223.013 803.027 220.459 801.004 217.93 798.952L209.742 809.049C207.132 806.933 204.547 804.787 201.989 802.614L210.406 792.706C207.921 790.596 205.463 788.459 203.03 786.294L194.389 796.007C191.879 793.774 189.395 791.513 186.938 789.224L195.799 779.712C193.414 777.491 191.056 775.243 188.725 772.97L179.649 782.277C177.243 779.931 174.866 777.559 172.516 775.16L181.804 766.064C179.525 763.736 177.272 761.383 175.048 759.005L165.554 767.884C163.259 765.431 160.993 762.952 158.757 760.447L168.454 751.789C166.285 749.359 164.144 746.904 162.032 744.426L152.137 752.857C149.959 750.301 147.81 747.719 145.692 745.114L155.781 736.914C153.726 734.387 151.702 731.836 149.707 729.262L139.431 737.224C137.374 734.57 135.349 731.891 133.355 729.19L143.814 721.47C141.88 718.85 139.977 716.207 138.105 713.542L127.468 721.016C125.538 718.269 123.64 715.499 121.775 712.707L132.585 705.485C130.776 702.778 129 700.05 127.255 697.3L116.278 704.264C114.48 701.43 112.715 698.574 110.983 695.697L122.122 688.994C120.444 686.205 118.798 683.396 117.185 680.567L105.891 687.004C104.229 684.089 102.602 681.153 101.009 678.196L112.453 672.029C110.909 669.165 109.399 666.281 107.923 663.379L96.3354 669.271C94.8146 666.28 93.3287 663.27 91.8783 660.24L103.604 654.627C102.199 651.693 100.829 648.741 99.4939 645.771L87.6372 651.102C86.2615 648.042 84.9215 644.964 83.6179 641.867L95.5993 636.823C94.3378 633.827 93.1114 630.813 91.9206 627.783L79.8211 632.537C78.5943 629.415 77.404 626.275 76.2507 623.118L88.4614 618.657C87.3464 615.605 86.2672 612.537 85.2243 609.453L72.9094 613.617C71.8347 610.439 70.7973 607.245 69.7978 604.035L82.21 600.17C81.2446 597.069 80.3156 593.953 79.4235 590.823L66.9212 594.386C66.0017 591.159 65.1201 587.917 64.2769 584.66L76.862 581.401C76.0487 578.26 75.2723 575.104 74.5334 571.935L61.8729 574.886C61.1108 571.618 60.3872 568.335 59.7026 565.038L72.4311 562.395C71.7718 559.22 71.1499 556.032 70.5658 552.832L57.777 555.165C57.1741 551.862 56.6102 548.545 56.0859 545.215L68.9276 543.193C68.4236 539.993 67.9573 536.781 67.5292 533.557L54.6423 535.269C54.2004 531.941 53.7978 528.601 53.435 525.25L66.3595 523.851C66.0108 520.63 65.7001 517.398 65.4278 514.155L52.4734 515.243C52.1927 511.9 51.9516 508.547 51.7506 505.183L64.7274 504.407C64.534 501.171 64.3787 497.925 64.2622 494.669L51.2705 495.134C51.1506 491.785 51.0703 488.427 51.0302 485.059L64.0292 484.904C64.0098 483.271 64 481.637 64 480C64 478.363 64.0098 476.729 64.0292 475.097L51.0302 474.942C51.0703 471.574 51.1506 468.215 51.2705 464.866L64.2622 465.332C64.3787 462.076 64.534 458.829 64.7274 455.593L51.7506 454.817C51.9516 451.454 52.1927 448.1 52.4734 444.758L65.4278 445.845C65.7001 442.602 66.0108 439.37 66.3595 436.149L53.435 434.75C53.7977 431.399 54.2003 428.059 54.6423 424.732L67.5291 426.443C67.9573 423.219 68.4236 420.007 68.9276 416.807L56.0859 414.785C56.6102 411.455 57.1741 408.139 57.777 404.835L70.5658 407.169C71.1499 403.968 71.7718 400.78 72.4311 397.605L59.7026 394.962C60.3872 391.665 61.1107 388.383 61.8729 385.114L74.5333 388.065C75.2723 384.896 76.0487 381.74 76.862 378.599L64.2768 375.341C65.12 372.084 66.0016 368.841 66.9212 365.615L79.4235 369.177C80.3156 366.047 81.2446 362.931 82.21 359.83L69.7977 355.966C70.7973 352.755 71.8347 349.561 72.9093 346.383L85.2243 350.547C86.2672 347.463 87.3464 344.395 88.4614 341.343L76.2507 336.882C77.4039 333.725 78.5942 330.585 79.8211 327.463L91.9205 332.217C93.1113 329.187 94.3377 326.173 95.5992 323.177L83.6178 318.133C84.9215 315.036 86.2614 311.958 87.6371 308.898L99.4938 314.229C100.829 311.259 102.199 308.307 103.604 305.374L91.8782 299.76C93.3287 296.73 94.8145 293.72 96.3353 290.729L107.923 296.622C109.399 293.719 110.909 290.835 112.453 287.971L101.009 281.804C102.602 278.848 104.229 275.911 105.891 272.996L117.185 279.433C118.798 276.604 120.444 273.795 122.122 271.006L110.983 264.303C112.715 261.426 114.48 258.57 116.278 255.736L127.255 262.7C129 259.951 130.776 257.222 132.585 254.515L121.775 247.293C123.64 244.501 125.538 241.732 127.468 238.985L138.105 246.458C139.977 243.793 141.88 241.151 143.814 238.53L133.355 230.81C135.349 228.109 137.374 225.431 139.431 222.776L149.707 230.738C151.702 228.164 153.726 225.613 155.781 223.086L145.692 214.887C147.81 212.281 149.959 209.699 152.137 207.143L162.032 215.574C164.144 213.096 166.285 210.641 168.454 208.211L158.757 199.553C160.993 197.049 163.259 194.569 165.553 192.116L175.048 200.995C177.272 198.617 179.524 196.264 181.804 193.936L172.516 184.84C174.866 182.442 177.243 180.069 179.649 177.723L188.725 187.03C191.056 184.757 193.414 182.509 195.799 180.288L186.938 170.776C189.395 168.487 191.878 166.226 194.389 163.993L203.03 173.706C205.462 171.542 207.921 169.404 210.405 167.294L201.989 157.386C204.547 155.213 207.131 153.068 209.741 150.951L217.93 161.048C220.459 158.997 223.013 156.973 225.591 154.978L217.635 144.697C220.289 142.643 222.968 140.617 225.672 138.621L233.393 149.08C236.013 147.146 238.656 145.24 241.323 143.363L233.841 132.732C236.586 130.801 239.354 128.899 242.145 127.028L249.384 137.826C252.089 136.012 254.817 134.228 257.567 132.473L250.574 121.514C253.402 119.709 256.253 117.935 259.126 116.192L265.869 127.307C268.654 125.617 271.461 123.957 274.288 122.328L267.798 111.064C270.704 109.39 273.631 107.747 276.579 106.135L282.814 117.543C285.673 115.98 288.552 114.448 291.452 112.948L285.476 101.402C288.453 99.8613 291.451 98.3522 294.469 96.8756L300.183 108.552C303.11 107.12 306.057 105.719 309.022 104.349L303.572 92.5469C306.615 91.1421 309.676 89.7699 312.757 88.4309L317.94 100.353C320.93 99.0531 323.938 97.7853 326.963 96.5501L322.05 84.5144C325.151 83.2485 328.27 82.0159 331.406 80.8169L336.048 92.9599C339.093 91.7957 342.156 90.6641 345.235 89.5657L340.867 77.3215C344.021 76.1963 347.191 75.1049 350.379 74.0478L354.471 86.3867C357.565 85.3606 360.674 84.3677 363.799 83.4084L359.984 70.9808C363.186 69.9979 366.403 69.0492 369.636 68.1353L373.173 80.645C376.307 79.7588 379.457 78.9062 382.621 78.0877L379.365 65.502C382.609 64.6629 385.867 63.8585 389.14 63.0892L392.114 75.7444C395.284 74.9994 398.467 74.2885 401.663 73.6119L398.971 60.8937C402.251 60.1995 405.544 59.5405 408.851 58.917L411.26 71.692C414.456 71.0893 417.666 70.5208 420.888 69.987L418.763 57.1618C422.073 56.6134 425.396 56.1005 428.731 55.6237L430.571 68.4928C433.788 68.0327 437.017 67.6071 440.258 67.2163L438.701 54.3098C442.036 53.9077 445.383 53.5414 448.741 53.2115L450.012 66.1491C453.243 65.8317 456.484 65.5488 459.736 65.3009L458.747 52.3385C462.094 52.0834 465.45 51.8642 468.817 51.6815L469.522 64.6624C472.767 64.4863 476.022 64.345 479.286 64.2389L478.864 51.2457C482.213 51.1368 485.573 51.0639 488.941 51.0274L489.082 64.0266C490.719 64.0089 492.358 64 494 64C495.642 64 497.281 64.0089 498.918 64.0266L499.059 51.0274C502.427 51.0639 505.786 51.1368 509.136 51.2457L508.714 64.2388C511.978 64.345 515.233 64.4863 518.478 64.6624L519.183 51.6815C522.549 51.8642 525.906 52.0833 529.252 52.3385L528.264 65.3008C531.516 65.5487 534.757 65.8316 537.988 66.1491L539.259 53.2114C542.617 53.5414 545.963 53.9076 549.298 54.3098L547.742 67.2163C550.982 67.6071 554.211 68.0327 557.429 68.4927L559.269 55.6236C562.604 56.1005 565.927 56.6134 569.237 57.1618L567.112 69.987C570.334 70.5208 573.543 71.0892 576.74 71.6919L579.149 58.917C582.455 59.5404 585.749 60.1994 589.029 60.8937L586.337 73.6119C589.533 74.2885 592.716 74.9994 595.885 75.7443L598.86 63.0892C602.133 63.8584 605.391 64.6628 608.635 65.502L605.379 78.0877C608.543 78.9062 611.693 79.7588 614.827 80.645L618.364 68.1352C621.597 69.0491 624.814 69.9978 628.016 70.9807L624.201 83.4083C627.326 84.3676 630.435 85.3605 633.528 86.3866L637.621 74.0477C640.808 75.1049 643.979 76.1963 647.133 77.3214L642.765 89.5656C645.844 90.664 648.906 91.7956 651.952 92.9598L656.594 80.8169C659.73 82.0158 662.849 83.2484 665.95 84.5143L661.036 96.55C664.062 97.7852 667.07 99.053 670.06 100.353L675.243 88.4308C678.323 89.7699 681.385 91.142 684.427 92.5468L678.978 104.349C681.943 105.719 684.89 107.12 687.817 108.552L693.531 96.8755C696.549 98.3521 699.546 99.8613 702.524 101.402L696.548 112.947C699.447 114.448 702.327 115.98 705.186 117.543L711.42 106.135C714.369 107.747 717.296 109.39 720.202 111.064L713.712 122.328C716.539 123.957 719.346 125.617 722.13 127.307L728.874 116.192C731.747 117.935 734.597 119.709 737.426 121.514L730.433 132.473C733.183 134.228 735.911 136.012 738.616 137.826L745.855 127.028C748.646 128.899 751.414 130.801 754.158 132.732L746.677 143.363C749.343 145.24 751.987 147.146 754.607 149.08L762.328 138.621C765.032 140.617 767.711 142.643 770.365 144.697L762.408 154.977C764.987 156.973 767.541 158.996 770.07 161.048L778.258 150.951C780.868 153.067 783.453 155.213 786.011 157.386L777.594 167.294C780.079 169.404 782.537 171.541 784.97 173.706L793.611 163.993C796.121 166.226 798.605 168.487 801.062 170.776L792.201 180.288C794.586 182.509 796.944 184.757 799.275 187.03L808.351 177.723C810.757 180.069 813.134 182.441 815.484 184.84L806.196 193.936C808.475 196.264 810.728 198.617 812.952 200.995L822.446 192.116C824.741 194.569 827.007 197.048 829.243 199.553L819.546 208.211C821.715 210.641 823.856 213.096 825.968 215.574L835.863 207.143C838.041 209.699 840.19 212.281 842.307 214.886L832.219 223.086C834.274 225.613 836.298 228.164 838.293 230.738L848.569 222.776C850.626 225.43 852.651 228.109 854.645 230.81L844.186 238.53C846.12 241.15 848.023 243.793 849.895 246.458L860.532 238.984C862.462 241.731 864.36 244.501 866.225 247.293L855.415 254.515C857.224 257.222 859 259.95 860.745 262.7L871.722 255.736C873.52 258.57 875.285 261.426 877.017 264.303L865.878 271.006C867.556 273.795 869.202 276.604 870.815 279.433L882.109 272.996C883.771 275.911 885.398 278.847 886.991 281.804L875.547 287.971C877.091 290.835 878.601 293.719 880.077 296.621L891.665 290.729C893.185 293.72 894.671 296.73 896.122 299.76L884.396 305.373C885.801 308.307 887.171 311.259 888.506 314.229L900.363 308.898C901.739 311.958 903.078 315.036 904.382 318.133L892.401 323.177C893.662 326.173 894.889 329.187 896.079 332.217L908.179 327.463C909.406 330.585 910.596 333.725 911.749 336.882L899.539 341.343C900.654 344.395 901.733 347.463 902.776 350.547L915.091 346.383C916.165 349.561 917.203 352.755 918.202 355.965L905.79 359.83C906.755 362.931 907.684 366.047 908.576 369.177L921.079 365.614C921.998 368.841 922.88 372.083 923.723 375.34L911.138 378.598C911.951 381.74 912.728 384.896 913.467 388.065L926.127 385.114C926.889 388.382 927.613 391.665 928.297 394.962L915.569 397.605C916.228 400.78 916.85 403.968 917.434 407.168L930.223 404.835C930.826 408.138 931.39 411.455 931.914 414.785L919.072 416.807C919.576 420.007 920.043 423.219 920.471 426.443L933.358 424.731C933.8 428.059 934.202 431.399 934.565 434.75L921.641 436.149C921.989 439.37 922.3 442.602 922.572 445.845L935.527 444.757C935.807 448.1 936.048 451.453 936.249 454.817L923.273 455.593C923.466 458.829 923.621 462.075 923.738 465.331L936.729 464.866Z" stroke="#00FFE0" stroke-opacity="0.7" stroke-width="26" stroke-dasharray="10 10"/>
<path d="M473.368 28.364C473.368 26.18 473.596 24.272 474.052 22.64C474.508 20.984 475.144 19.616 475.96 18.536C476.8 17.456 477.796 16.652 478.948 16.124C480.1 15.572 481.384 15.296 482.8 15.296C485.824 15.296 488.152 16.364 489.784 18.5C491.416 20.612 492.232 23.9 492.232 28.364C492.232 30.572 492.004 32.504 491.548 34.16C491.092 35.792 490.444 37.16 489.604 38.264C488.788 39.344 487.792 40.16 486.616 40.712C485.464 41.24 484.18 41.504 482.764 41.504C479.716 41.504 477.388 40.388 475.78 38.156C474.172 35.9 473.368 32.636 473.368 28.364ZM487.624 28.364C487.624 27.98 487.612 27.62 487.588 27.284C487.588 26.924 487.576 26.576 487.552 26.24L478.732 34.268C479.476 36.452 480.832 37.544 482.8 37.544C484.336 37.544 485.524 36.812 486.364 35.348C487.204 33.884 487.624 31.556 487.624 28.364ZM477.976 28.364C477.976 28.724 477.976 29.072 477.976 29.408C478 29.72 478.024 30.044 478.048 30.38L486.832 22.352C486.112 20.288 484.756 19.256 482.764 19.256C481.228 19.256 480.04 20 479.2 21.488C478.384 22.952 477.976 25.244 477.976 28.364ZM501.47 38.624C501.47 37.784 501.734 37.124 502.262 36.644C502.79 36.14 503.486 35.888 504.35 35.888C505.262 35.888 505.982 36.14 506.51 36.644C507.038 37.124 507.302 37.784 507.302 38.624C507.302 39.464 507.038 40.136 506.51 40.64C505.982 41.144 505.262 41.396 504.35 41.396C503.486 41.396 502.79 41.144 502.262 40.64C501.734 40.136 501.47 39.464 501.47 38.624ZM534 41H517.944V37.508C518.232 37.268 518.592 36.956 519.024 36.572C519.456 36.164 519.936 35.708 520.464 35.204C521.016 34.7 521.592 34.148 522.192 33.548C522.792 32.948 523.38 32.324 523.956 31.676C524.772 30.764 525.48 29.936 526.08 29.192C526.704 28.448 527.208 27.752 527.592 27.104C528 26.432 528.3 25.784 528.492 25.16C528.684 24.512 528.78 23.852 528.78 23.18C528.78 22.7 528.672 22.232 528.456 21.776C528.24 21.32 527.94 20.924 527.556 20.588C527.172 20.228 526.704 19.952 526.152 19.76C525.624 19.544 525.036 19.436 524.388 19.436C523.524 19.436 522.732 19.568 522.012 19.832C521.316 20.096 520.584 20.54 519.816 21.164L517.944 17.852C518.952 17.132 520.068 16.532 521.292 16.052C522.54 15.548 523.968 15.296 525.576 15.296C526.608 15.296 527.592 15.44 528.528 15.728C529.488 16.016 530.328 16.448 531.048 17.024C531.792 17.576 532.38 18.272 532.812 19.112C533.244 19.952 533.46 20.924 533.46 22.028C533.46 22.796 533.388 23.516 533.244 24.188C533.124 24.836 532.92 25.496 532.632 26.168C532.368 26.816 532.008 27.488 531.552 28.184C531.12 28.88 530.592 29.636 529.968 30.452C529.488 31.076 528.96 31.712 528.384 32.36C527.832 32.984 527.28 33.584 526.728 34.16C526.176 34.736 525.624 35.276 525.072 35.78C524.544 36.284 524.064 36.704 523.632 37.04H534V41Z" fill="#00B39D"/>
<path d="M517.344 927.812C517.344 926.636 517.572 925.544 518.028 924.536C518.46 923.528 519.06 922.652 519.828 921.908C520.596 921.164 521.52 920.576 522.6 920.144C523.656 919.712 524.796 919.496 526.02 919.496C527.268 919.496 528.444 919.688 529.548 920.072C530.628 920.48 531.576 921.08 532.392 921.872C533.208 922.664 533.856 923.66 534.336 924.86C534.816 926.06 535.056 927.452 535.056 929.036C535.056 931.412 534.648 933.572 533.832 935.516C532.992 937.46 531.924 939.14 530.628 940.556C529.332 941.996 527.88 943.148 526.272 944.012C524.664 944.9 523.068 945.464 521.484 945.704L520.44 941.996C521.712 941.756 522.9 941.36 524.004 940.808C525.108 940.28 526.092 939.632 526.956 938.864C527.82 938.096 528.552 937.244 529.152 936.308C529.728 935.372 530.124 934.4 530.34 933.392C529.86 933.992 529.14 934.496 528.18 934.904C527.22 935.336 526.164 935.552 525.012 935.552C523.932 935.552 522.924 935.372 521.988 935.012C521.052 934.676 520.248 934.172 519.576 933.5C518.88 932.852 518.34 932.048 517.956 931.088C517.548 930.128 517.344 929.036 517.344 927.812ZM521.88 927.632C521.88 928.928 522.276 929.912 523.068 930.584C523.836 931.256 524.88 931.592 526.2 931.592C527.16 931.592 528.024 931.376 528.792 930.944C529.56 930.512 530.124 930.008 530.484 929.432C530.532 929.168 530.568 928.868 530.592 928.532C530.592 928.22 530.592 927.968 530.592 927.776C530.592 927.2 530.496 926.648 530.304 926.12C530.112 925.592 529.836 925.124 529.476 924.716C529.092 924.332 528.636 924.02 528.108 923.78C527.58 923.564 526.968 923.456 526.272 923.456C525.72 923.456 525.18 923.552 524.652 923.744C524.124 923.96 523.656 924.248 523.248 924.608C522.84 924.968 522.516 925.4 522.276 925.904C522.012 926.432 521.88 927.008 521.88 927.632ZM507.53 922.376C507.53 923.216 507.266 923.876 506.738 924.356C506.21 924.86 505.514 925.112 504.65 925.112C503.738 925.112 503.018 924.86 502.49 924.356C501.962 923.876 501.698 923.216 501.698 922.376C501.698 921.536 501.962 920.864 502.49 920.36C503.018 919.856 503.738 919.604 504.65 919.604C505.514 919.604 506.21 919.856 506.738 920.36C507.266 920.864 507.53 921.536 507.53 922.376ZM484.9 923.456C484.108 923.456 483.388 923.552 482.74 923.744C482.068 923.96 481.504 924.248 481.048 924.608C480.568 924.992 480.196 925.424 479.932 925.904C479.668 926.408 479.536 926.948 479.536 927.524C479.536 928.244 479.692 928.844 480.004 929.324C480.292 929.828 480.7 930.224 481.228 930.512C481.756 930.8 482.392 931.004 483.136 931.124C483.88 931.244 484.684 931.304 485.548 931.304H487.564V933.86L481.516 941.24H490.624V945.2H475.936V941.924L482.272 934.688H481.444C480.604 934.688 479.788 934.544 478.996 934.256C478.204 933.968 477.508 933.536 476.908 932.96C476.284 932.384 475.792 931.664 475.432 930.8C475.048 929.936 474.856 928.94 474.856 927.812C474.856 926.444 475.144 925.244 475.72 924.212C476.272 923.18 477.016 922.304 477.952 921.584C478.864 920.888 479.92 920.36 481.12 920C482.32 919.664 483.556 919.496 484.828 919.496C485.908 919.496 486.988 919.592 488.068 919.784C489.148 919.976 490.192 920.276 491.2 920.684L489.94 924.572C489.724 924.452 489.436 924.332 489.076 924.212C488.692 924.092 488.272 923.972 487.816 923.852C487.336 923.732 486.856 923.636 486.376 923.564C485.872 923.492 485.38 923.456 484.9 923.456Z" fill="#00B39D"/>
<path d="M951.636 480.532C951.636 481.324 951.732 482.056 951.924 482.728C952.116 483.4 952.392 483.976 952.752 484.456C953.112 484.96 953.556 485.344 954.084 485.608C954.612 485.896 955.212 486.04 955.884 486.04C957.204 486.04 958.236 485.512 958.98 484.456C959.748 483.424 960.132 481.864 960.132 479.776C960.132 479.512 960.12 479.2 960.096 478.84C960.096 478.504 960.084 478.18 960.06 477.868C960.036 477.508 960.024 477.136 960.024 476.752H973.2V489.784H968.88V480.784H963.948C963.948 480.976 963.96 481.168 963.984 481.36C963.984 481.528 963.984 481.684 963.984 481.828C964.008 481.996 964.02 482.14 964.02 482.26C964.02 483.46 963.84 484.576 963.48 485.608C963.144 486.64 962.628 487.54 961.932 488.308C961.236 489.076 960.384 489.664 959.376 490.072C958.392 490.504 957.3 490.72 956.1 490.72C954.684 490.72 953.436 490.456 952.356 489.928C951.3 489.4 950.412 488.68 949.692 487.768C948.972 486.856 948.42 485.8 948.036 484.6C947.676 483.4 947.496 482.116 947.496 480.748C947.496 480.22 947.556 479.656 947.676 479.056C947.772 478.456 947.892 477.868 948.036 477.292C948.204 476.716 948.384 476.176 948.576 475.672C948.768 475.192 948.948 474.784 949.116 474.448L952.86 475.96C952.62 476.368 952.356 476.992 952.068 477.832C951.78 478.696 951.636 479.596 951.636 480.532Z" fill="#00B39D"/>
<path d="M34.844 491.84C34.004 491.84 33.236 491.708 32.54 491.444C31.844 491.156 31.22 490.796 30.668 490.364C30.116 489.908 29.624 489.392 29.192 488.816C28.736 488.24 28.34 487.652 28.004 487.052C27.308 488.252 26.492 489.248 25.556 490.04C24.596 490.832 23.396 491.228 21.956 491.228C21.02 491.228 20.144 491.024 19.328 490.616C18.512 490.208 17.804 489.644 17.204 488.924C16.604 488.18 16.136 487.304 15.8 486.296C15.464 485.288 15.296 484.196 15.296 483.02C15.296 481.94 15.44 480.932 15.728 479.996C16.016 479.036 16.424 478.196 16.952 477.476C17.48 476.756 18.128 476.192 18.896 475.784C19.64 475.376 20.468 475.172 21.38 475.172C22.796 475.172 24.032 475.544 25.088 476.288C26.144 477.008 27.056 478.004 27.824 479.276C28.568 477.836 29.444 476.696 30.452 475.856C31.46 474.992 32.756 474.56 34.34 474.56C35.42 474.56 36.404 474.8 37.292 475.28C38.156 475.736 38.9 476.36 39.524 477.152C40.148 477.944 40.64 478.88 41 479.96C41.336 481.016 41.504 482.144 41.504 483.344C41.504 484.544 41.336 485.66 41 486.692C40.688 487.724 40.244 488.624 39.668 489.392C39.092 490.16 38.396 490.76 37.58 491.192C36.764 491.624 35.852 491.84 34.844 491.84ZM34.232 479.024C33.632 479.024 33.116 479.18 32.684 479.492C32.252 479.804 31.868 480.2 31.532 480.68C31.196 481.136 30.896 481.652 30.632 482.228C30.344 482.78 30.056 483.32 29.768 483.848C30.296 485.048 30.98 485.972 31.82 486.62C32.636 487.268 33.416 487.592 34.16 487.592C35.24 487.592 36.08 487.208 36.68 486.44C37.256 485.672 37.544 484.604 37.544 483.236C37.544 482.012 37.268 481.004 36.716 480.212C36.14 479.42 35.312 479.024 34.232 479.024ZM22.172 486.764C22.748 486.764 23.24 486.644 23.648 486.404C24.032 486.14 24.38 485.816 24.692 485.432C24.98 485.024 25.244 484.568 25.484 484.064C25.724 483.56 25.964 483.056 26.204 482.552C26.012 482.168 25.772 481.796 25.484 481.436C25.196 481.052 24.884 480.716 24.548 480.428C24.188 480.14 23.828 479.912 23.468 479.744C23.084 479.552 22.7 479.456 22.316 479.456C21.812 479.456 21.38 479.564 21.02 479.78C20.636 479.996 20.312 480.284 20.048 480.644C19.784 480.98 19.592 481.364 19.472 481.796C19.328 482.228 19.256 482.672 19.256 483.128C19.256 483.656 19.34 484.148 19.508 484.604C19.676 485.036 19.892 485.42 20.156 485.756C20.42 486.068 20.732 486.32 21.092 486.512C21.452 486.68 21.812 486.764 22.172 486.764ZM38.624 470.47C37.784 470.47 37.124 470.206 36.644 469.678C36.14 469.15 35.888 468.454 35.888 467.59C35.888 466.678 36.14 465.958 36.644 465.43C37.124 464.902 37.784 464.638 38.624 464.638C39.464 464.638 40.136 464.902 40.64 465.43C41.144 465.958 41.396 466.678 41.396 467.59C41.396 468.454 41.144 469.15 40.64 469.678C40.136 470.206 39.464 470.47 38.624 470.47ZM37.544 453.78C37.544 452.988 37.448 452.268 37.256 451.62C37.04 450.948 36.752 450.384 36.392 449.928C36.008 449.448 35.576 449.076 35.096 448.812C34.592 448.548 34.052 448.416 33.476 448.416C32.756 448.416 32.156 448.572 31.676 448.884C31.172 449.172 30.776 449.58 30.488 450.108C30.2 450.636 29.996 451.272 29.876 452.016C29.756 452.76 29.696 453.564 29.696 454.428V456.444H27.14L19.76 450.396V459.504H15.8L15.8 444.816H19.076L26.312 451.152V450.324C26.312 449.484 26.456 448.668 26.744 447.876C27.032 447.084 27.464 446.388 28.04 445.788C28.616 445.164 29.336 444.672 30.2 444.312C31.064 443.928 32.06 443.736 33.188 443.736C34.556 443.736 35.756 444.024 36.788 444.6C37.82 445.152 38.696 445.896 39.416 446.832C40.112 447.744 40.64 448.8 41 450C41.336 451.2 41.504 452.436 41.504 453.708C41.504 454.788 41.408 455.868 41.216 456.948C41.024 458.028 40.724 459.072 40.316 460.08L36.428 458.82C36.548 458.604 36.668 458.316 36.788 457.956C36.908 457.572 37.028 457.152 37.148 456.696C37.268 456.216 37.364 455.736 37.436 455.256C37.508 454.752 37.544 454.26 37.544 453.78Z" fill="#00B39D"/>
</svg>
